<?xml version="1.0" encoding="UTF-8" standalone="no"?>
<!-- Created with Inkscape (http://www.inkscape.org/) -->

<svg
   xmlns:dc="http://purl.org/dc/elements/1.1/"
   xmlns:cc="http://creativecommons.org/ns#"
   xmlns:rdf="http://www.w3.org/1999/02/22-rdf-syntax-ns#"
   xmlns:svg="http://www.w3.org/2000/svg"
   xmlns="http://www.w3.org/2000/svg"
   xmlns:sodipodi="http://sodipodi.sourceforge.net/DTD/sodipodi-0.dtd"
   xmlns:inkscape="http://www.inkscape.org/namespaces/inkscape"
   width="744.09448819"
   height="1052.3622047"
   id="svg2"
   version="1.1"
   inkscape:version="0.48.4 r9939"
   sodipodi:docname="AdDuplex.svg">
  <defs
     id="defs4">
    <clipPath
       clipPathUnits="userSpaceOnUse"
       id="clipPath4174">
      <rect
         style="fill:#8cbe29;fill-opacity:1;stroke:#8cbe29;stroke-width:0;stroke-miterlimit:4;stroke-opacity:1;stroke-dasharray:none;stroke-dashoffset:0"
         id="rect4176"
         width="311.42856"
         height="155.71428"
         x="570.38568"
         y="-606.61163" />
    </clipPath>
  </defs>
  <sodipodi:namedview
     id="base"
     pagecolor="#ffffff"
     bordercolor="#666666"
     borderopacity="1.0"
     inkscape:pageopacity="0.0"
     inkscape:pageshadow="2"
     inkscape:zoom="0.98994949"
     inkscape:cx="379.73819"
     inkscape:cy="580.85882"
     inkscape:document-units="px"
     inkscape:current-layer="layer1"
     showgrid="false"
     inkscape:window-width="1600"
     inkscape:window-height="837"
     inkscape:window-x="-8"
     inkscape:window-y="-8"
     inkscape:window-maximized="1" />
  <metadata
     id="metadata7">
    <rdf:RDF>
      <cc:Work
         rdf:about="">
        <dc:format>image/svg+xml</dc:format>
        <dc:type
           rdf:resource="http://purl.org/dc/dcmitype/StillImage" />
        <dc:title></dc:title>
      </cc:Work>
    </rdf:RDF>
  </metadata>
  <g
     inkscape:label="Layer 1"
     inkscape:groupmode="layer"
     id="layer1">
    <rect
       style="fill:#000000;fill-opacity:1;stroke:none"
       id="rect3090"
       width="1219.2542"
       height="382.84781"
       x="-224.82309"
       y="758.79346" />
    <rect
       style="fill:#8cbe29;fill-opacity:1;stroke:none"
       id="rect2985"
       width="768"
       height="128"
       x="-31.42857"
       y="370.07648"
       inkscape:export-filename="C:\Users\brendan\Documents\Code\WindowsPhone\Pocketailor\Pocketailor-v.2.x.x\Marketing\AdDuplexAdvert\AdDuplex.png"
       inkscape:export-xdpi="90"
       inkscape:export-ydpi="90" />
    <text
       xml:space="preserve"
       style="font-size:24px;font-style:normal;font-variant:normal;font-weight:normal;font-stretch:normal;line-height:125%;letter-spacing:0px;word-spacing:0px;fill:#000000;fill-opacity:1;stroke:none;font-family:Lobster;-inkscape-font-specification:Lobster"
       x="-10.235672"
       y="421.57813"
       id="text2987"
       sodipodi:linespacing="125%"
       inkscape:export-filename="C:\Users\brendan\Documents\Code\WindowsPhone\Pocketailor\Pocketailor-v.2.x.x\Marketing\AdDuplexAdvert\AdDuplex.png"
       inkscape:export-xdpi="90"
       inkscape:export-ydpi="90"><tspan
         sodipodi:role="line"
         id="tspan2989"
         x="-10.235672"
         y="421.57813"
         style="font-size:36px;font-style:normal;font-variant:normal;font-weight:normal;font-stretch:normal;fill:#ffffff;font-family:Segoe UI;-inkscape-font-specification:Segoe UI">Find your perfect size </tspan><tspan
         sodipodi:role="line"
         x="-10.235672"
         y="466.57813"
         style="font-size:36px;font-style:normal;font-variant:normal;font-weight:normal;font-stretch:normal;fill:#ffffff;font-family:Segoe UI;-inkscape-font-specification:Segoe UI"
         id="tspan2991">clothing with POCKETAILOR</tspan></text>
    <text
       xml:space="preserve"
       style="font-size:21.0542717px;font-style:normal;font-variant:normal;font-weight:normal;font-stretch:normal;text-align:end;line-height:125%;letter-spacing:0px;word-spacing:0px;text-anchor:end;fill:#000000;fill-opacity:1;stroke:none;font-family:Lobster;-inkscape-font-specification:Lobster"
       x="537.75311"
       y="412.27301"
       id="text2987-1"
       sodipodi:linespacing="125%"
       inkscape:export-filename="C:\Users\brendan\Documents\Code\WindowsPhone\Pocketailor\Pocketailor-v.2.x.x\Marketing\AdDuplexAdvert\AdDuplex.png"
       inkscape:export-xdpi="90"
       inkscape:export-ydpi="90"><tspan
         sodipodi:role="line"
         x="543.06812"
         y="412.27301"
         style="font-size:19.29974937px;font-style:normal;font-variant:normal;font-weight:bold;font-stretch:normal;text-align:end;text-anchor:end;fill:#ffffff;font-family:Segoe UI;-inkscape-font-specification:Segoe UI Bold"
         id="tspan2998">Free on  Windows </tspan><tspan
         sodipodi:role="line"
         x="537.75311"
         y="436.39771"
         style="font-size:19.29974937px;font-style:normal;font-variant:normal;font-weight:bold;font-stretch:normal;text-align:end;text-anchor:end;fill:#ffffff;font-family:Segoe UI;-inkscape-font-specification:Segoe UI Bold"
         id="tspan3006">Phone 7.5+</tspan></text>
    <rect
       style="fill:#000000;fill-opacity:1;stroke:none"
       id="rect3092"
       width="4.0406103"
       height="2.0203052"
       x="549.52301"
       y="715.98138" />
    <g
       transform="matrix(0.68680096,0,0,0.68680096,130.35605,782.16647)"
       id="g4211"
       clip-path="url(#clipPath4174)"
       inkscape:export-filename="C:\Users\brendan\Documents\Code\WindowsPhone\Pocketailor\Pocketailor-v.2.x.x\Marketing\AdDuplexAdvert\AdDuplex.png"
       inkscape:export-xdpi="90"
       inkscape:export-ydpi="90">
      <path
         sodipodi:nodetypes="ccccccccccccccccccccccccccccccccccccccccccccccccccccccccccssssssssssssssssssssssssssssss"
         inkscape:connector-curvature="0"
         id="path4213"
         d="m 685.58212,-551.24981 -6.98908,-0.0582 10e-5,23.23897 5.9406,2e-5 2.27158,-2e-5 10e-6,2.27157 -10e-6,5.94063 22.97693,-0.029 -9e-5,-7.16389 -8.32877,-9e-5 -15.90024,-15.90025 z m -18.02616,-10.10511 -28.36429,-2e-5 -10.04698,0.0293 -12.7843,-0.0291 -0.0291,12.84264 1e-5,10.01781 -1e-5,11.29897 13.27942,-2e-5 -45.74996,45.74997 -0.0288,0.0288 0.0288,0.0288 15.78375,30.57769 10.1344,-9e-5 -0.0291,-10.51285 66.54266,-66.54262 0.0288,-0.029 2e-5,-0.1752 -2e-5,-24.52024 -0.0288,-0.0288 z m 43.77015,43.88572 -0.29131,-2e-5 c -0.0401,-0.0401 -0.0494,-0.10148 -0.0875,-0.14541 l -24.17085,9e-5 -2.2425,0.0291 8e-5,-0.0578 -2e-5,-2.21324 0,-5.94081 -7.0474,1.1e-4 -65.43602,65.43602 -1e-4,6.58146 -0.0291,2.94125 0.0582,12.40577 28.07305,13.45412 0.029,0.0289 0.0288,-0.0289 45.74988,-45.74986 -0.0291,13.25026 11.32841,0.0291 10.01781,10e-6 12.84253,-0.0291 -0.0291,-12.78439 0.0291,-10.04689 -0.0291,-28.39354 -8.73647,-8.73645 z m -31.56781,-3.55284 c 1.14994,1.14997 1.14975,2.9856 8e-5,4.13526 -1.15005,1.15005 -2.9854,1.14996 -4.13534,0 -1.14951,-1.14948 -1.15005,-2.9853 0,-4.13535 1.14966,-1.14966 2.98575,-1.14939 4.13526,9e-5 z m -11.41564,11.41564 c 1.14993,1.14997 1.12086,3.01448 -0.0291,4.16443 -1.14976,1.14976 -3.01449,1.17902 -4.16442,0.0291 -1.1495,-1.14948 -1.12071,-3.01467 0.0291,-4.16444 1.14993,-1.14993 3.01493,-1.17854 4.16442,-0.0291 z m -11.44483,11.44481 c 1.14996,1.14995 1.14996,2.9854 1.1e-4,4.13528 -1.14987,1.14983 -3.01448,1.179 -4.16442,0.0291 -1.14949,-1.14948 -1.12078,-3.01456 0.0291,-4.16442 1.14987,-1.14986 2.98578,-1.14939 4.13526,8e-5 z m -11.44472,11.44472 c 1.14997,1.14995 1.15005,2.9853 2e-5,4.13535 -1.14966,1.14966 -3.01448,1.17902 -4.16443,0.0291 -1.14948,-1.14949 -1.1206,-3.01475 0.0291,-4.16441 1.15006,-1.15005 2.98587,-1.14951 4.13535,0 z m -11.41561,11.41564 c 1.14993,1.14994 1.12077,3.01456 -0.0291,4.16442 -1.14986,1.14987 -2.98542,1.14995 -4.13535,0 -1.14949,-1.14949 -1.14987,-2.9855 0,-4.13535 1.14985,-1.14985 3.01492,-1.17855 4.16443,-0.0291 z m -11.44473,11.44471 c 1.14995,1.14996 1.12079,3.01456 -0.0291,4.16443 -1.14995,1.14995 -2.9854,1.14995 -4.13535,0 -1.14947,-1.1495 -1.14994,-2.98541 10e-6,-4.13536 1.14985,-1.14985 3.01494,-1.17856 4.16441,-0.0291 z"
         style="fill:#ffffff;fill-opacity:1;stroke:none;display:inline"
         inkscape:export-filename="C:\Users\brendan\Documents\Code\WindowsPhone\Pocketailor\Pocketailor\Images\MaleProfileIconFull.png"
         inkscape:export-xdpi="90"
         inkscape:export-ydpi="90" />
      <path
         style="fill:#ffffff;fill-opacity:1;stroke:none;display:inline"
         d="m 833.47156,-548.42033 -7.13488,-0.0291 -0.029,22.97689 5.9407,-7e-5 2.2424,0.0291 0.0291,2.24238 -8e-5,5.94071 23.2099,0.0291 -0.0581,-6.98918 -8.27071,10e-6 -15.90027,-15.90025 z m 25.33565,33.43154 -24.28729,0 -0.20407,0.0287 -0.0287,0.0289 -66.51356,66.51357 -10.542,6e-5 0.0293,10.16339 32.93627,18.20091 0.20393,0.20387 c 22.18678,-22.18676 8.61178,-40.17261 46.65278,-53.70011 l -2.06767,49.36105 21.02563,0.99003 c 0,0 9.33894,-71.11457 8.15414,-77.2885 -1.0835,-5.64534 -1.66443,-10.01793 -5.44586,-14.41511 z M 824.0657,-549.6147 c -4.40819,-3.80657 -8.785,-4.38874 -14.44427,-5.47486 -6.17394,-1.1848 -77.31769,8.12496 -77.31769,8.12496 l 1.01929,21.0549 49.36103,-2.06765 c -13.52768,38.04082 -31.51339,24.46591 -53.7002,46.65268 l 0.17477,0.1747 15.72562,30.46104 12.40577,8e-5 2.91225,-9e-5 6.58136,0 65.46519,-65.46522 -0.0291,-7.01824 -5.91162,-0.0291 -2.24239,0.0292 -0.0578,-7e-5 0.0581,-2.27157 z m 3.40717,31.1892 c 1.1495,1.14949 1.12069,3.01466 -0.0291,4.16442 -1.14998,1.14996 -2.98577,1.14938 -4.13528,-7e-5 -1.14991,-1.14997 -1.15003,-2.98531 -7e-5,-4.13526 1.14977,-1.14977 3.01447,-1.17903 4.16442,-0.0291 z m -11.4447,11.44472 c 1.14947,1.14949 1.12087,3.01447 -0.0291,4.16442 -1.14974,1.14977 -2.98585,1.14949 -4.13533,2e-5 -1.14994,-1.14998 -1.14976,-2.9856 10e-6,-4.13537 1.14993,-1.14996 3.01445,-1.17903 4.1644,-0.0291 z m -11.4447,11.44471 c 1.14945,1.14949 1.14984,2.98549 -3e-5,4.13535 -1.14984,1.14986 -3.01493,1.17856 -4.16443,0.0291 -1.14993,-1.14998 -1.12077,-3.01458 0.0291,-4.16445 1.14986,-1.14984 2.9854,-1.14992 4.13537,2e-5 z m -11.41565,11.41566 c 1.14949,1.14944 1.12088,3.01443 -0.0291,4.1644 -1.14976,1.14978 -3.01494,1.17857 -4.16441,0.0291 -1.14996,-1.14995 -1.12071,-3.01464 0.0291,-4.16441 1.14995,-1.14995 3.01448,-1.17903 4.16443,-0.029 z M 781.723,-472.6756 c 1.14952,1.14947 1.14996,2.98538 1.1e-4,4.13521 -1.14995,1.14999 -3.01496,1.1786 -4.16445,0.0291 -1.14994,-1.14993 -1.12087,-3.01444 0.0291,-4.1644 1.14985,-1.14986 2.98534,-1.14987 4.13527,7e-5 z m -11.44484,11.44478 c 1.14952,1.14949 1.12092,3.01448 -0.0291,4.16444 -1.14985,1.14985 -2.95657,1.12022 -4.10608,-0.0293 -1.14994,-1.14994 -1.17912,-2.95623 -0.0293,-4.10611 1.14995,-1.14995 3.01448,-1.17902 4.16441,-0.0291 z"
         id="path4215"
         inkscape:connector-curvature="0"
         sodipodi:nodetypes="cccccccccccccccccccccccccccccccccccccccccccccssssssssssssssssssssssssssssss" />
    </g>
  </g>
</svg>
