<?xml version="1.0" encoding="UTF-8" standalone="no"?>
<!-- Created with Inkscape (http://www.inkscape.org/) -->

<svg
   xmlns:dc="http://purl.org/dc/elements/1.1/"
   xmlns:cc="http://creativecommons.org/ns#"
   xmlns:rdf="http://www.w3.org/1999/02/22-rdf-syntax-ns#"
   xmlns:svg="http://www.w3.org/2000/svg"
   xmlns="http://www.w3.org/2000/svg"
   xmlns:sodipodi="http://sodipodi.sourceforge.net/DTD/sodipodi-0.dtd"
   xmlns:inkscape="http://www.inkscape.org/namespaces/inkscape"
   width="744.09448819"
   height="1052.3622047"
   id="svg2"
   version="1.1"
   inkscape:version="0.48.4 r9939"
   sodipodi:docname="New document 1">
  <defs
     id="defs4" />
  <sodipodi:namedview
     id="base"
     pagecolor="#ffffff"
     bordercolor="#666666"
     borderopacity="1.0"
     inkscape:pageopacity="0.0"
     inkscape:pageshadow="2"
     inkscape:zoom="0.49497475"
     inkscape:cx="-134.22803"
     inkscape:cy="375.76651"
     inkscape:document-units="px"
     inkscape:current-layer="layer1"
     showgrid="false"
     inkscape:window-width="1600"
     inkscape:window-height="837"
     inkscape:window-x="-8"
     inkscape:window-y="-8"
     inkscape:window-maximized="1" />
  <metadata
     id="metadata7">
    <rdf:RDF>
      <cc:Work
         rdf:about="">
        <dc:format>image/svg+xml</dc:format>
        <dc:type
           rdf:resource="http://purl.org/dc/dcmitype/StillImage" />
        <dc:title></dc:title>
      </cc:Work>
    </rdf:RDF>
  </metadata>
  <g
     inkscape:label="Layer 1"
     inkscape:groupmode="layer"
     id="layer1">
    <rect
       style="fill:#000000;fill-opacity:1;stroke:none"
       id="rect3090"
       width="1219.2542"
       height="382.84781"
       x="-224.82309"
       y="758.79346" />
    <rect
       style="fill:#8cbe29;fill-opacity:1;stroke:none"
       id="rect2985"
       width="768"
       height="128"
       x="-31.42857"
       y="370.07648"
       inkscape:export-filename="C:\Users\brendan\Documents\Code\WindowsPhone\Pocketailor\ReleaseMeta\AdDuplexAdvert\AdDuplex.png"
       inkscape:export-xdpi="90"
       inkscape:export-ydpi="90" />
    <text
       xml:space="preserve"
       style="font-size:24px;font-style:normal;font-variant:normal;font-weight:normal;font-stretch:normal;line-height:125%;letter-spacing:0px;word-spacing:0px;fill:#000000;fill-opacity:1;stroke:none;font-family:Lobster;-inkscape-font-specification:Lobster"
       x="-2.8071003"
       y="418.00668"
       id="text2987"
       sodipodi:linespacing="125%"
       inkscape:export-filename="C:\Users\brendan\Documents\Code\WindowsPhone\Pocketailor\ReleaseMeta\AdDuplexAdvert\AdDuplex.png"
       inkscape:export-xdpi="90"
       inkscape:export-ydpi="90"><tspan
         sodipodi:role="line"
         id="tspan2989"
         x="-2.8071003"
         y="418.00668"
         style="font-size:36px;font-style:normal;font-variant:normal;font-weight:normal;font-stretch:normal;fill:#ffffff;font-family:Segoe UI;-inkscape-font-specification:Segoe UI">Find your perfect size clothing </tspan><tspan
         sodipodi:role="line"
         x="-2.8071003"
         y="463.00668"
         style="font-size:36px;font-style:normal;font-variant:normal;font-weight:normal;font-stretch:normal;fill:#ffffff;font-family:Segoe UI;-inkscape-font-specification:Segoe UI"
         id="tspan2991">with POCKETAILOR</tspan></text>
    <g
       inkscape:export-ydpi="90"
       inkscape:export-xdpi="90"
       inkscape:export-filename="C:\Users\brendan\Documents\Code\WindowsPhone\Pocketailor\ReleaseMeta\AdDuplexAdvert\AdDuplex.png"
       style="fill:#ffffff;stroke-width:2;stroke-miterlimit:4;stroke-dasharray:none;display:inline"
       id="g10307-70-8-3"
       transform="matrix(0.54574535,0.54574535,-0.54574535,0.54574535,3037.9678,-4103.1504)">
      <rect
         y="3048.0205"
         x="5814.9399"
         height="8.3368826"
         width="24.563316"
         id="rect10309-8-8-3"
         style="fill:#ffffff;fill-opacity:1;stroke:none"
         transform="matrix(0.70683405,0.70737941,-0.70683405,0.70737941,0,0)"
         inkscape:export-filename="C:\Users\brendan\Documents\Code\WindowsPhone\Pocketailor\Pocketailor\Background.png"
         inkscape:export-xdpi="89.999985"
         inkscape:export-ydpi="89.999985" />
      <rect
         transform="matrix(-0.70683405,0.70737941,0.70683405,0.70737941,0,0)"
         style="fill:#ffffff;fill-opacity:1;stroke:none"
         id="rect10311-6-2-5"
         width="24.563316"
         height="8.3368826"
         x="3023.2224"
         y="5839.7383"
         inkscape:export-filename="C:\Users\brendan\Documents\Code\WindowsPhone\Pocketailor\Pocketailor\Background.png"
         inkscape:export-xdpi="89.999985"
         inkscape:export-ydpi="89.999985" />
      <rect
         style="fill:#ffffff;fill-opacity:1;stroke:none"
         id="rect10313-4-4-9"
         width="24.763962"
         height="11.216905"
         x="1960.8579"
         y="6275.5063"
         inkscape:export-filename="C:\Users\brendan\Documents\Code\WindowsPhone\Pocketailor\Pocketailor\Background.png"
         inkscape:export-xdpi="89.999985"
         inkscape:export-ydpi="89.999985" />
      <rect
         inkscape:export-ydpi="89.999985"
         inkscape:export-xdpi="89.999985"
         inkscape:export-filename="C:\Users\brendan\Documents\Code\WindowsPhone\Pocketailor\Pocketailor\Background.png"
         transform="matrix(0.70683405,0.70737941,-0.70683405,0.70737941,0,0)"
         style="fill:#ffffff;fill-opacity:1;stroke:none"
         id="rect10315-9-5-9"
         width="24.563316"
         height="8.3368826"
         x="5814.9399"
         y="3048.0205" />
      <rect
         inkscape:export-ydpi="89.999985"
         inkscape:export-xdpi="89.999985"
         inkscape:export-filename="C:\Users\brendan\Documents\Code\WindowsPhone\Pocketailor\Pocketailor\Background.png"
         y="5839.7383"
         x="3023.2224"
         height="8.3368826"
         width="24.563316"
         id="rect10317-7-5-8"
         style="fill:#ffffff;fill-opacity:1;stroke:none"
         transform="matrix(-0.70683405,0.70737941,0.70683405,0.70737941,0,0)" />
      <rect
         inkscape:export-ydpi="89.999985"
         inkscape:export-xdpi="89.999985"
         inkscape:export-filename="C:\Users\brendan\Documents\Code\WindowsPhone\Pocketailor\Pocketailor\Background.png"
         y="6275.5063"
         x="1960.8579"
         height="11.216905"
         width="24.763962"
         id="rect10319-0-1-1"
         style="fill:#ffffff;fill-opacity:1;stroke:none" />
      <path
         d="m 1959.3929,5057.415 c 0,2.1479 -1.7412,3.8891 -3.8891,3.8891 -2.1479,0 -3.8891,-1.7412 -3.8891,-3.8891 0,-2.1478 1.7412,-3.889 3.8891,-3.889 2.1479,0 3.8891,1.7412 3.8891,3.889 z"
         sodipodi:ry="3.8890872"
         sodipodi:rx="3.8890872"
         sodipodi:cy="5057.415"
         sodipodi:cx="1955.5038"
         id="path10321-13-7-8"
         style="fill:#ffffff;fill-opacity:1;stroke:none"
         sodipodi:type="arc"
         transform="matrix(0.67695675,0,0,0.67695675,649.73729,2874.0888)"
         inkscape:export-filename="C:\Users\brendan\Documents\Code\WindowsPhone\Pocketailor\Pocketailor\Background.png"
         inkscape:export-xdpi="89.999985"
         inkscape:export-ydpi="89.999985" />
      <path
         d="m 1959.3929,5057.415 c 0,2.1479 -1.7412,3.8891 -3.8891,3.8891 -2.1479,0 -3.8891,-1.7412 -3.8891,-3.8891 0,-2.1478 1.7412,-3.889 3.8891,-3.889 2.1479,0 3.8891,1.7412 3.8891,3.889 z"
         sodipodi:ry="3.8890872"
         sodipodi:rx="3.8890872"
         sodipodi:cy="5057.415"
         sodipodi:cx="1955.5038"
         id="path10323-1-1-2"
         style="fill:#ffffff;fill-opacity:1;stroke:none"
         sodipodi:type="arc"
         transform="matrix(0.67695675,0,0,0.67695675,649.73749,2886.6551)"
         inkscape:export-filename="C:\Users\brendan\Documents\Code\WindowsPhone\Pocketailor\Pocketailor\Background.png"
         inkscape:export-xdpi="89.999985"
         inkscape:export-ydpi="89.999985" />
      <path
         inkscape:export-ydpi="89.999985"
         inkscape:export-xdpi="89.999985"
         inkscape:export-filename="C:\Users\brendan\Documents\Code\WindowsPhone\Pocketailor\Pocketailor\Background.png"
         transform="matrix(0.67695675,0,0,0.67695675,649.73749,2899.2213)"
         sodipodi:type="arc"
         style="fill:#ffffff;fill-opacity:1;stroke:none"
         id="path10325-1-1-6"
         sodipodi:cx="1955.5038"
         sodipodi:cy="5057.415"
         sodipodi:rx="3.8890872"
         sodipodi:ry="3.8890872"
         d="m 1959.3929,5057.415 c 0,2.1479 -1.7412,3.8891 -3.8891,3.8891 -2.1479,0 -3.8891,-1.7412 -3.8891,-3.8891 0,-2.1478 1.7412,-3.889 3.8891,-3.889 2.1479,0 3.8891,1.7412 3.8891,3.889 z" />
    </g>
    <rect
       style="fill:#000000;fill-opacity:1;stroke:none"
       id="rect3088"
       width="768"
       height="9.0108738"
       x="-31.42857"
       y="489.06561"
       inkscape:export-filename="C:\Users\brendan\Documents\Code\WindowsPhone\Pocketailor\ReleaseMeta\AdDuplexAdvert\AdDuplex.png"
       inkscape:export-xdpi="90"
       inkscape:export-ydpi="90" />
    <text
       xml:space="preserve"
       style="font-size:24px;font-style:normal;font-variant:normal;font-weight:normal;font-stretch:normal;text-align:end;line-height:125%;letter-spacing:0px;word-spacing:0px;text-anchor:end;fill:#000000;fill-opacity:1;stroke:none;font-family:Lobster;-inkscape-font-specification:Lobster"
       x="581.75311"
       y="436.42422"
       id="text2987-1"
       sodipodi:linespacing="125%"
       inkscape:export-filename="C:\Users\brendan\Documents\Code\WindowsPhone\Pocketailor\ReleaseMeta\AdDuplexAdvert\AdDuplex.png"
       inkscape:export-xdpi="90"
       inkscape:export-ydpi="90"><tspan
         sodipodi:role="line"
         x="587.81171"
         y="436.42422"
         style="font-size:22px;font-style:normal;font-variant:normal;font-weight:bold;font-stretch:normal;text-align:end;text-anchor:end;fill:#ffffff;font-family:Segoe UI;-inkscape-font-specification:Segoe UI Bold"
         id="tspan2991-4">Free on </tspan><tspan
         sodipodi:role="line"
         x="581.75311"
         y="463.92422"
         style="font-size:22px;font-style:normal;font-variant:normal;font-weight:bold;font-stretch:normal;text-align:end;text-anchor:end;fill:#ffffff;font-family:Segoe UI;-inkscape-font-specification:Segoe UI Bold"
         id="tspan3023">Windows Phone 7.5+</tspan></text>
    <g
       inkscape:export-ydpi="90"
       inkscape:export-xdpi="90"
       inkscape:export-filename="C:\Users\brendan\Documents\Code\WindowsPhone\Pocketailor\ReleaseMeta\AdDuplexAdvert\AdDuplex.png"
       transform="matrix(0.36585664,0,0,-0.37403599,-2343.6395,1765.1416)"
       id="g10530-5-6"
       style="fill:#fccd43;fill-opacity:1;display:inline">
      <g
         id="g10532-7-0"
         transform="matrix(0.94544357,0,0,1,447.33683,0)"
         style="fill:#fccd43;fill-opacity:1">
        <path
           id="path10534-6-3"
           d="m 8016.2282,3390.4216 239.4847,0 0,71.3962 -13.5463,0 0,-33.7511 -9.6335,0 0,33.7511 -23.5968,0 0,-45.7511 -9.6335,-10e-5 1e-4,45.7512 -23.597,0 0,-33.7511 -9.6334,0 0,33.7511 -23.5969,0 0,-45.751 -9.6334,-1e-4 0,45.7511 -23.5969,0 0,-33.7511 -9.6335,-10e-5 1e-4,33.7512 -23.597,0 1e-4,-45.7511 -9.6136,0 0,45.7511 -23.6167,0 0,-33.7511 -9.6136,0 0,33.7511 -16.9428,0 z"
           style="fill:#fccd43;fill-opacity:1;stroke:none"
           inkscape:connector-curvature="0"
           sodipodi:nodetypes="ccccccccccccccccccccccccccccccccc" />
        <path
           id="path10536-1-8"
           d="m 8115.8419,3390.4216 239.4847,0 0,71.3962 -13.5463,0 0,-45.7511 -9.6335,0 0,45.7511 -23.5968,0 0,-33.7511 -9.6335,-10e-5 1e-4,33.7512 -23.597,0 0,-45.7511 -9.6334,0 0,45.7511 -23.5969,0 0,-45.751 -9.6334,-1e-4 0,45.7511 -23.5969,0 0,-45.7511 -9.6335,-10e-5 10e-5,45.7512 -23.597,0 1e-4,-45.7511 -9.6136,0 0,45.7511 -23.6167,0 0,-45.7511 -9.6136,0 0,45.7511 -16.9428,0 z"
           style="fill:#fccd43;fill-opacity:1;stroke:none"
           inkscape:connector-curvature="0"
           sodipodi:nodetypes="ccccccccccccccccccccccccccccccccc" />
      </g>
      <rect
         style="fill:#fccd43;fill-opacity:1;stroke:none"
         id="rect10538-8-0"
         width="11.490485"
         height="71.396004"
         x="8338.0928"
         y="3390.4219" />
    </g>
    <g
       style="display:inline"
       id="g10327-9-5-1"
       transform="matrix(0.57795119,0.57795119,-0.57795119,0.57795119,3044.7528,-4488.0272)"
       inkscape:export-filename="C:\Users\brendan\Documents\Code\WindowsPhone\Pocketailor\ReleaseMeta\AdDuplexAdvert\AdDuplex.png"
       inkscape:export-xdpi="90"
       inkscape:export-ydpi="90">
      <path
         sodipodi:nodetypes="ccsccccccccccccc"
         inkscape:connector-curvature="0"
         style="fill:#ffffff;fill-opacity:1;stroke:none"
         d="m 2211.4955,6264.4303 -21.661,11.5435 c 0,0 -13.1522,-11.3809 -21.6479,-11.3807 -6.6019,-2e-4 -10.184,2.8065 -15.2171,6.2186 -5.033,3.4123 -47.3048,58.415 -47.3048,58.415 l 15.0817,13.7115 32.3587,-35.1519 c 16.7655,35.2694 -4.8332,38.2487 -4.8332,68.5972 l 80.5392,2e-4 1e-4,-62.6057 9.0496,9.0694 14.5881,-14.5869 -10e-5,-17.5319 -26.2782,-26.298 -14.6755,1e-4 z"
         id="path10329-9-2-2"
         inkscape:export-filename="C:\Users\brendan\Documents\Code\WindowsPhone\Pocketailor\Pocketailor\Background.png"
         inkscape:export-xdpi="89.999985"
         inkscape:export-ydpi="89.999985" />
      <rect
         transform="matrix(0.70710678,-0.70710678,0.70710678,0.70710678,0,0)"
         y="6030.3716"
         x="-2878.667"
         height="22.036686"
         width="22.036686"
         id="rect10331-9-7-5"
         style="fill:#ffffff;fill-opacity:1;stroke:#ffffff;stroke-width:2;stroke-linecap:round;stroke-miterlimit:4;stroke-opacity:1;stroke-dasharray:none;stroke-dashoffset:0" />
    </g>
    <path
       inkscape:export-ydpi="90"
       inkscape:export-xdpi="90"
       inkscape:export-filename="C:\Users\brendan\Documents\Code\WindowsPhone\Pocketailor\ReleaseMeta\AdDuplexAdvert\AdDuplex.png"
       inkscape:connector-curvature="0"
       id="path10333-5-6-0"
       d="m 677.48925,382.32323 -0.1366,22.51196 6.89003,-0.0676 -0.20472,6.61698 22.71683,-0.0675"
       style="fill:none;stroke:#8abe2d;stroke-width:1.54360092;stroke-linecap:butt;stroke-linejoin:miter;stroke-miterlimit:4;stroke-opacity:1;stroke-dasharray:none;display:inline" />
    <path
       transform="matrix(0.504183,0.504183,-0.504183,0.504183,2541.2908,-4078.6603)"
       d="m 2605.9372,6301.0234 a 2.0883482,2.0883482 0 1 1 -4.1767,0 2.0883482,2.0883482 0 1 1 4.1767,0 z"
       sodipodi:ry="2.0883482"
       sodipodi:rx="2.0883482"
       sodipodi:cy="6301.0234"
       sodipodi:cx="2603.8489"
       id="path10343-9-1-9"
       style="fill:#8abe2d;fill-opacity:1;stroke:#8abe2d;stroke-width:2;stroke-linecap:round;stroke-miterlimit:4;stroke-opacity:1;stroke-dasharray:none;stroke-dashoffset:0;display:inline"
       sodipodi:type="arc"
       inkscape:export-filename="C:\Users\brendan\Documents\Code\WindowsPhone\Pocketailor\ReleaseMeta\AdDuplexAdvert\AdDuplex.png"
       inkscape:export-xdpi="90"
       inkscape:export-ydpi="90" />
    <path
       transform="matrix(0.504183,0.504183,-0.504183,0.504183,2532.0625,-4069.4321)"
       d="m 2605.9372,6301.0234 a 2.0883482,2.0883482 0 1 1 -4.1767,0 2.0883482,2.0883482 0 1 1 4.1767,0 z"
       sodipodi:ry="2.0883482"
       sodipodi:rx="2.0883482"
       sodipodi:cy="6301.0234"
       sodipodi:cx="2603.8489"
       id="path10349-3-4-4"
       style="fill:#8abe2d;fill-opacity:1;stroke:#8abe2d;stroke-width:2;stroke-linecap:round;stroke-miterlimit:4;stroke-opacity:1;stroke-dasharray:none;stroke-dashoffset:0;display:inline"
       sodipodi:type="arc"
       inkscape:export-filename="C:\Users\brendan\Documents\Code\WindowsPhone\Pocketailor\ReleaseMeta\AdDuplexAdvert\AdDuplex.png"
       inkscape:export-xdpi="90"
       inkscape:export-ydpi="90" />
    <path
       inkscape:export-ydpi="90"
       inkscape:export-xdpi="90"
       inkscape:export-filename="C:\Users\brendan\Documents\Code\WindowsPhone\Pocketailor\ReleaseMeta\AdDuplexAdvert\AdDuplex.png"
       sodipodi:type="arc"
       style="fill:#8abe2d;fill-opacity:1;stroke:#8abe2d;stroke-width:2;stroke-linecap:round;stroke-miterlimit:4;stroke-opacity:1;stroke-dasharray:none;stroke-dashoffset:0;display:inline"
       id="path10335-5-2-7"
       sodipodi:cx="2603.8489"
       sodipodi:cy="6301.0234"
       sodipodi:rx="2.0883482"
       sodipodi:ry="2.0883482"
       d="m 2605.9372,6301.0234 a 2.0883482,2.0883482 0 1 1 -4.1767,0 2.0883482,2.0883482 0 1 1 4.1767,0 z"
       transform="matrix(0.504183,0.504183,-0.504183,0.504183,2504.3778,-4041.7473)" />
    <path
       transform="matrix(0.504183,0.504183,-0.504183,0.504183,2522.8344,-4060.2038)"
       d="m 2605.9372,6301.0234 a 2.0883482,2.0883482 0 1 1 -4.1767,0 2.0883482,2.0883482 0 1 1 4.1767,0 z"
       sodipodi:ry="2.0883482"
       sodipodi:rx="2.0883482"
       sodipodi:cy="6301.0234"
       sodipodi:cx="2603.8489"
       id="path10351-6-3-8"
       style="fill:#8abe2d;fill-opacity:1;stroke:#8abe2d;stroke-width:2;stroke-linecap:round;stroke-miterlimit:4;stroke-opacity:1;stroke-dasharray:none;stroke-dashoffset:0;display:inline"
       sodipodi:type="arc"
       inkscape:export-filename="C:\Users\brendan\Documents\Code\WindowsPhone\Pocketailor\ReleaseMeta\AdDuplexAdvert\AdDuplex.png"
       inkscape:export-xdpi="90"
       inkscape:export-ydpi="90" />
    <path
       inkscape:export-ydpi="90"
       inkscape:export-xdpi="90"
       inkscape:export-filename="C:\Users\brendan\Documents\Code\WindowsPhone\Pocketailor\ReleaseMeta\AdDuplexAdvert\AdDuplex.png"
       sodipodi:type="arc"
       style="fill:#8abe2d;fill-opacity:1;stroke:#8abe2d;stroke-width:2;stroke-linecap:round;stroke-miterlimit:4;stroke-opacity:1;stroke-dasharray:none;stroke-dashoffset:0;display:inline"
       id="path10337-1-2-3"
       sodipodi:cx="2603.8489"
       sodipodi:cy="6301.0234"
       sodipodi:rx="2.0883482"
       sodipodi:ry="2.0883482"
       d="m 2605.9372,6301.0234 a 2.0883482,2.0883482 0 1 1 -4.1767,0 2.0883482,2.0883482 0 1 1 4.1767,0 z"
       transform="matrix(0.504183,0.504183,-0.504183,0.504183,2495.1496,-4032.5191)" />
    <path
       sodipodi:type="arc"
       style="fill:#8abe2d;fill-opacity:1;stroke:#8abe2d;stroke-width:2;stroke-linecap:round;stroke-miterlimit:4;stroke-opacity:1;stroke-dasharray:none;stroke-dashoffset:0;display:inline"
       id="path10353-4-2-5"
       sodipodi:cx="2603.8489"
       sodipodi:cy="6301.0234"
       sodipodi:rx="2.0883482"
       sodipodi:ry="2.0883482"
       d="m 2605.9372,6301.0234 a 2.0883482,2.0883482 0 1 1 -4.1767,0 2.0883482,2.0883482 0 1 1 4.1767,0 z"
       transform="matrix(0.504183,0.504183,-0.504183,0.504183,2513.606,-4050.9756)"
       inkscape:export-filename="C:\Users\brendan\Documents\Code\WindowsPhone\Pocketailor\ReleaseMeta\AdDuplexAdvert\AdDuplex.png"
       inkscape:export-xdpi="90"
       inkscape:export-ydpi="90" />
    <path
       style="fill:#ffffff;stroke:#ffffff;stroke-width:0.90035164px;stroke-linecap:butt;stroke-linejoin:miter;stroke-opacity:1;display:inline"
       d="m 625.77873,462.54447 -9.42254,0.48883 -14.88113,-24.42683"
       id="path12540-3-1-1"
       inkscape:connector-curvature="0"
       sodipodi:nodetypes="ccc"
       inkscape:export-filename="C:\Users\brendan\Documents\Code\WindowsPhone\Pocketailor\ReleaseMeta\AdDuplexAdvert\AdDuplex.png"
       inkscape:export-xdpi="90"
       inkscape:export-ydpi="90" />
    <path
       sodipodi:nodetypes="ccc"
       inkscape:connector-curvature="0"
       id="path12562-9-6-2"
       d="m 625.81067,462.57635 -0.48889,9.42244 22.43719,12.8918"
       style="fill:#ffffff;stroke:#ffffff;stroke-width:0.90035164px;stroke-linecap:butt;stroke-linejoin:miter;stroke-opacity:1;display:inline"
       inkscape:export-filename="C:\Users\brendan\Documents\Code\WindowsPhone\Pocketailor\ReleaseMeta\AdDuplexAdvert\AdDuplex.png"
       inkscape:export-xdpi="90"
       inkscape:export-ydpi="90" />
    <path
       style="fill:none;stroke:#8abe2d;stroke-width:1.80070329;stroke-linecap:butt;stroke-linejoin:miter;stroke-miterlimit:4;stroke-opacity:1;stroke-dasharray:none;display:inline"
       d="m 684.01983,411.29521 -52.27998,52.27988 -15.14764,0.83436"
       id="path10341-5-8-0"
       inkscape:connector-curvature="0"
       inkscape:export-filename="C:\Users\brendan\Documents\Code\WindowsPhone\Pocketailor\ReleaseMeta\AdDuplexAdvert\AdDuplex.png"
       inkscape:export-xdpi="90"
       inkscape:export-ydpi="90"
       sodipodi:nodetypes="ccc" />
    <rect
       style="fill:#000000;fill-opacity:1;stroke:none"
       id="rect3092"
       width="4.0406103"
       height="2.0203052"
       x="549.52301"
       y="715.98138" />
  </g>
</svg>
