<?xml version="1.0" encoding="UTF-8" standalone="no"?>
<!-- Created with Inkscape (http://www.inkscape.org/) -->

<svg
   xmlns:dc="http://purl.org/dc/elements/1.1/"
   xmlns:cc="http://creativecommons.org/ns#"
   xmlns:rdf="http://www.w3.org/1999/02/22-rdf-syntax-ns#"
   xmlns:svg="http://www.w3.org/2000/svg"
   xmlns="http://www.w3.org/2000/svg"
   xmlns:sodipodi="http://sodipodi.sourceforge.net/DTD/sodipodi-0.dtd"
   xmlns:inkscape="http://www.inkscape.org/namespaces/inkscape"
   width="744.09448819"
   height="1052.3622047"
   id="svg3829"
   version="1.1"
   inkscape:version="0.48.4 r9939"
   sodipodi:docname="appbar.pocketailor.tape.svg">
  <defs
     id="defs3831" />
  <sodipodi:namedview
     id="base"
     pagecolor="#ffffff"
     bordercolor="#666666"
     borderopacity="1.0"
     inkscape:pageopacity="0.0"
     inkscape:pageshadow="2"
     inkscape:zoom="3.959798"
     inkscape:cx="276.5426"
     inkscape:cy="607.44222"
     inkscape:document-units="px"
     inkscape:current-layer="layer1"
     showgrid="false"
     inkscape:window-width="1600"
     inkscape:window-height="837"
     inkscape:window-x="-8"
     inkscape:window-y="-8"
     inkscape:window-maximized="1" />
  <metadata
     id="metadata3834">
    <rdf:RDF>
      <cc:Work
         rdf:about="">
        <dc:format>image/svg+xml</dc:format>
        <dc:type
           rdf:resource="http://purl.org/dc/dcmitype/StillImage" />
        <dc:title></dc:title>
      </cc:Work>
    </rdf:RDF>
  </metadata>
  <g
     inkscape:label="Layer 1"
     inkscape:groupmode="layer"
     id="layer1">
    <g
       transform="matrix(1.0553692e-8,-1.3005344,1.3005344,1.0553692e-8,1745.6404,536.28472)"
       id="g3911">
      <rect
         y="-314.83459"
         x="-905.62921"
         height="19.489799"
         width="5.8517623"
         id="rect3913"
         style="fill:#fccd43;fill-opacity:1;stroke:none"
         transform="matrix(0,1,-1,0,0,0)" />
      <path
         sodipodi:nodetypes="ccccccccccccccccccccccccccccccccc"
         inkscape:export-ydpi="89.999985"
         inkscape:export-xdpi="89.999985"
         inkscape:export-filename="C:\Users\brendan\Documents\Code\WindowsPhone\Pocketailor\Pocketailor\Background.png"
         id="path3915"
         d="m 314.83459,-901.43512 0,-59.15524 -19.4898,0 0,3.34607 10.48152,4e-5 0,2.37954 -10.48152,0 0,5.82865 14.49688,0 0,2.37962 -14.49688,-4e-5 0,5.82869 10.48152,0 0,2.37954 -10.48152,0 0,5.82869 14.49685,-4e-5 3e-5,2.37962 -14.49688,0 0,5.82865 10.48148,0 4e-5,2.37958 -10.48152,0 0,5.82872 14.49685,-4e-5 3e-5,2.37461 -14.49688,0 0,5.83362 10.48152,0 -4e-5,2.37461 -10.48148,0 0,4.18511 z"
         style="fill:#fccd43;fill-opacity:1;stroke:none"
         inkscape:connector-curvature="0" />
      <rect
         style="fill:#fccd43;fill-opacity:1;stroke:none"
         id="rect3917"
         width="5.8517623"
         height="19.489799"
         x="-963.07935"
         y="-314.83459"
         transform="matrix(0,1,-1,0,0,0)" />
    </g>
    <rect
       style="fill:#000000;fill-opacity:1;stroke:#ffffff;stroke-width:0;stroke-miterlimit:4;stroke-opacity:1;stroke-dasharray:none;stroke-dashoffset:0"
       id="rect3919"
       width="162.85715"
       height="150"
       x="298.57144"
       y="148.07646" />
    <rect
       style="fill:#000000;fill-opacity:1;stroke:#ffffff;stroke-width:0;stroke-miterlimit:4;stroke-opacity:1;stroke-dasharray:none;stroke-dashoffset:0"
       id="rect3921"
       width="75.761444"
       height="76.013977"
       x="234.10286"
       y="420.00668" />
    <g
       id="g3824"
       transform="matrix(0.67639633,-0.67639635,0.67639635,0.67639633,703.70129,1290.3787)"
       style="fill:#ffffff"
       inkscape:export-filename="C:\Users\brendan\Documents\Code\WindowsPhone\Pocketailor\Resources\appbar.pocketailor.tape.png"
       inkscape:export-xdpi="89.999985"
       inkscape:export-ydpi="89.999985">
      <rect
         transform="matrix(0,1,-1,0,0,0)"
         style="fill:#ffffff;fill-opacity:1;stroke:none"
         id="rect4741-1"
         width="5.8517623"
         height="19.489799"
         x="-905.62921"
         y="-314.83459" />
      <path
         inkscape:connector-curvature="0"
         style="fill:#ffffff;fill-opacity:1;stroke:none"
         d="m 314.83459,-901.43512 0,-59.15524 -19.4898,0 0,3.34607 10.48152,4e-5 0,2.37954 -10.48152,0 0,5.82865 14.49688,0 0,2.37962 -14.49688,-4e-5 0,5.82869 10.48152,0 0,2.37954 -10.48152,0 0,5.82869 14.49685,-4e-5 3e-5,2.37962 -14.49688,0 0,5.82865 10.48148,0 4e-5,2.37958 -10.48152,0 0,5.82872 14.49685,-4e-5 3e-5,2.37461 -14.49688,0 0,5.83362 10.48152,0 -4e-5,2.37461 -10.48148,0 0,4.18511 z"
         id="path4743-7"
         inkscape:export-filename="C:\Users\brendan\Documents\Code\WindowsPhone\Pocketailor\Pocketailor\Background.png"
         inkscape:export-xdpi="89.999985"
         inkscape:export-ydpi="89.999985"
         sodipodi:nodetypes="ccccccccccccccccccccccccccccccccc" />
      <rect
         transform="matrix(0,1,-1,0,0,0)"
         y="-314.83459"
         x="-963.07935"
         height="19.489799"
         width="5.8517623"
         id="rect4745-1"
         style="fill:#ffffff;fill-opacity:1;stroke:none" />
    </g>
  </g>
</svg>
