<?xml version="1.0" encoding="UTF-8" standalone="no"?>
<!-- Created with Inkscape (http://www.inkscape.org/) -->

<svg
   xmlns:dc="http://purl.org/dc/elements/1.1/"
   xmlns:cc="http://creativecommons.org/ns#"
   xmlns:rdf="http://www.w3.org/1999/02/22-rdf-syntax-ns#"
   xmlns:svg="http://www.w3.org/2000/svg"
   xmlns="http://www.w3.org/2000/svg"
   xmlns:xlink="http://www.w3.org/1999/xlink"
   xmlns:sodipodi="http://sodipodi.sourceforge.net/DTD/sodipodi-0.dtd"
   xmlns:inkscape="http://www.inkscape.org/namespaces/inkscape"
   width="744.09448819"
   height="1052.3622047"
   id="svg2"
   version="1.1"
   inkscape:version="0.48.4 r9939"
   sodipodi:docname="IconMan.svg">
  <defs
     id="defs4" />
  <sodipodi:namedview
     id="base"
     pagecolor="#ffffff"
     bordercolor="#666666"
     borderopacity="1.0"
     inkscape:pageopacity="0.0"
     inkscape:pageshadow="2"
     inkscape:zoom="1.4"
     inkscape:cx="221.48183"
     inkscape:cy="428.43635"
     inkscape:document-units="px"
     inkscape:current-layer="layer1"
     showgrid="false"
     inkscape:window-width="1600"
     inkscape:window-height="837"
     inkscape:window-x="-8"
     inkscape:window-y="-8"
     inkscape:window-maximized="1" />
  <metadata
     id="metadata7">
    <rdf:RDF>
      <cc:Work
         rdf:about="">
        <dc:format>image/svg+xml</dc:format>
        <dc:type
           rdf:resource="http://purl.org/dc/dcmitype/StillImage" />
        <dc:title></dc:title>
      </cc:Work>
    </rdf:RDF>
  </metadata>
  <g
     inkscape:label="Layer 1"
     inkscape:groupmode="layer"
     id="layer1">
    <image
       y="63.076488"
       x="735.71429"
       id="image2993"
       xlink:href="file:///C:/Users/brendan/Documents/Code/WindowsPhone/VitalStats/Resources/generic-man.png"
       height="430"
       width="620" />
    <path
       transform="matrix(0.95614035,0,0,0.95614035,-166.73559,1.614955)"
       d="m 301.42856,207.36218 a 27.5,27.5 0 1 1 -55,0 27.5,27.5 0 1 1 55,0 z"
       sodipodi:ry="27.5"
       sodipodi:rx="27.5"
       sodipodi:cy="207.36218"
       sodipodi:cx="273.92856"
       id="path3793"
       style="fill:#000000;stroke:#000000;stroke-width:2;stroke-miterlimit:4;stroke-dasharray:none;stroke-dashoffset:0"
       sodipodi:type="arc" />
    <path
       transform="matrix(0.95614035,0,0,0.95614035,71.121553,0.90066926)"
       d="m 301.42856,207.36218 a 27.5,27.5 0 1 1 -55,0 27.5,27.5 0 1 1 55,0 z"
       sodipodi:ry="27.5"
       sodipodi:rx="27.5"
       sodipodi:cy="207.36218"
       sodipodi:cx="273.92856"
       id="path3797"
       style="fill:#000000;stroke:#000000;stroke-width:2;stroke-miterlimit:4;stroke-dasharray:none;stroke-dashoffset:0"
       sodipodi:type="arc" />
    <path
       transform="matrix(0.95614035,0,0,0.95614035,360.40727,-4.0993307)"
       d="m 301.42856,207.36218 a 27.5,27.5 0 1 1 -55,0 27.5,27.5 0 1 1 55,0 z"
       sodipodi:ry="27.5"
       sodipodi:rx="27.5"
       sodipodi:cy="207.36218"
       sodipodi:cx="273.92856"
       id="path3801"
       style="fill:#000000;stroke:#000000;stroke-width:2;stroke-miterlimit:4;stroke-dasharray:none;stroke-dashoffset:0"
       sodipodi:type="arc" />
    <path
       sodipodi:type="arc"
       style="fill:#000000;stroke:#000000;stroke-width:2;stroke-miterlimit:4;stroke-dasharray:none;stroke-dashoffset:0"
       id="path2996"
       sodipodi:cx="273.92856"
       sodipodi:cy="207.36218"
       sodipodi:rx="27.5"
       sodipodi:ry="27.5"
       d="m 301.42856,207.36218 a 27.5,27.5 0 1 1 -55,0 27.5,27.5 0 1 1 55,0 z"
       transform="matrix(0.95614035,0,0,0.95614035,-191.0213,370.90067)" />
    <path
       sodipodi:nodetypes="cscsccccccccccccscc"
       inkscape:connector-curvature="0"
       id="path3795"
       d="m 59.053571,227.40762 c -8.95774,0 -11.84909,6.64922 -12.40625,13.90488 -2.37367,30.91141 -4.61104,64.47188 -6.37881,95.01562 0,0 17.91907,0.0729 18.19131,0 0.27223,-0.0729 6,-75.84375 6,-75.84375 l 2.15625,0 0,200.4375 25.71875,0 0,-113.51562 5.875,0 0,113.51562 26.093749,0 0,-200.4375 2.25,0 6,75.84375 18.84375,0 c -2.33413,-33.11312 -4.90316,-64.45114 -6.75761,-95.01562 -0.45006,-7.41767 -7.5415,-13.52665 -17,-13.90488 -25.82149,0.0288 -46.846859,0 -68.586139,0 z"
       style="fill:#000000;stroke:#000000;stroke-width:1;stroke-linecap:butt;stroke-linejoin:miter;stroke-miterlimit:4;stroke-opacity:1;stroke-dasharray:none;stroke-dashoffset:0" />
    <path
       sodipodi:nodetypes="cscsccccccccccccscc"
       inkscape:connector-curvature="0"
       id="path3799"
       d="m 296.91071,226.69333 c -8.95774,0 -11.84909,6.64922 -12.40625,13.90488 -2.37367,30.91141 -4.61104,64.47188 -6.37881,95.01562 0,0 17.91907,0.0729 18.19131,0 0.27223,-0.0729 6,-75.84375 6,-75.84375 l 2.15625,0 0,200.4375 25.71875,0 0,-113.51562 5.875,0 0,113.51562 26.09375,0 0,-200.4375 2.25,0 6,75.84375 18.84375,0 c -2.33413,-33.11312 -4.90316,-64.45114 -6.75761,-95.01562 -0.45006,-7.41767 -7.5415,-13.52665 -17,-13.90488 -25.82149,0.0288 -46.84686,0 -68.58614,0 z"
       style="fill:#000000;stroke:#000000;stroke-width:1;stroke-linecap:butt;stroke-linejoin:miter;stroke-miterlimit:4;stroke-opacity:1;stroke-dasharray:none;stroke-dashoffset:0" />
    <path
       sodipodi:nodetypes="cscsccccccccccccscc"
       inkscape:connector-curvature="0"
       id="path3803"
       d="m 586.19643,221.69333 c -8.95774,0 -11.84909,6.64922 -12.40625,13.90488 -2.37367,30.91141 -4.61104,64.47188 -6.37881,95.01562 0,0 17.91907,0.0729 18.19131,0 0.27223,-0.0729 6,-75.84375 6,-75.84375 l 2.15625,0 0,200.4375 25.71875,0 0,-113.51562 5.875,0 0,113.51562 26.09375,0 0,-200.4375 2.25,0 6,75.84375 18.84375,0 c -2.33413,-33.11312 -4.90316,-64.45114 -6.75761,-95.01562 -0.45006,-7.41767 -7.5415,-13.52665 -17,-13.90488 -25.82149,0.0288 -46.84686,0 -68.58614,0 z"
       style="fill:#000000;stroke:#000000;stroke-width:1;stroke-linecap:butt;stroke-linejoin:miter;stroke-miterlimit:4;stroke-opacity:1;stroke-dasharray:none;stroke-dashoffset:0" />
    <path
       style="fill:#000000;stroke:#000000;stroke-width:1;stroke-linecap:butt;stroke-linejoin:miter;stroke-miterlimit:4;stroke-opacity:1;stroke-dasharray:none;stroke-dashoffset:0"
       d="m 34.767857,596.69333 c -8.95774,0 -11.84909,6.64922 -12.40625,13.90488 -2.37367,30.91141 -4.61104,64.47188 -6.37881,95.01562 0,0 17.91907,0.0729 18.19131,0 0.27223,-0.0729 6,-75.84375 6,-75.84375 l 2.15625,0 0,200.4375 25.71875,0 0,-113.51562 5.875,0 0,113.51562 26.093753,0 0,-200.4375 2.25,0 6,75.84375 18.84375,0 c -2.33413,-33.11312 -4.90316,-64.45114 -6.75761,-95.01562 -0.45006,-7.41767 -7.5415,-13.52665 -17,-13.90488 -25.821493,0.0288 -46.846863,0 -68.586143,0 z"
       id="path2998"
       inkscape:connector-curvature="0"
       sodipodi:nodetypes="cscsccccccccccccscc" />
  </g>
</svg>
