<?xml version="1.0" encoding="UTF-8" standalone="no"?>
<svg
   xmlns:dc="http://purl.org/dc/elements/1.1/"
   xmlns:cc="http://creativecommons.org/ns#"
   xmlns:rdf="http://www.w3.org/1999/02/22-rdf-syntax-ns#"
   xmlns:svg="http://www.w3.org/2000/svg"
   xmlns="http://www.w3.org/2000/svg"
   xmlns:sodipodi="http://sodipodi.sourceforge.net/DTD/sodipodi-0.dtd"
   xmlns:inkscape="http://www.inkscape.org/namespaces/inkscape"
   version="1.1"
   width="76.0106"
   height="76.0106"
   viewBox="0 0 76.01 76.01"
   enable-background="new 0 0 76.01 76.01"
   xml:space="preserve"
   id="svg2"
   inkscape:version="0.48.4 r9939"
   sodipodi:docname="lockimages.svg"><metadata
   id="metadata10"><rdf:RDF><cc:Work
       rdf:about=""><dc:format>image/svg+xml</dc:format><dc:type
         rdf:resource="http://purl.org/dc/dcmitype/StillImage" /><dc:title></dc:title></cc:Work></rdf:RDF></metadata><defs
   id="defs8" /><sodipodi:namedview
   pagecolor="#ffffff"
   bordercolor="#666666"
   borderopacity="1"
   objecttolerance="10"
   gridtolerance="10"
   guidetolerance="10"
   inkscape:pageopacity="0"
   inkscape:pageshadow="2"
   inkscape:window-width="1593"
   inkscape:window-height="820"
   id="namedview6"
   showgrid="false"
   inkscape:zoom="4.390893"
   inkscape:cx="17.863571"
   inkscape:cy="30.449139"
   inkscape:window-x="0"
   inkscape:window-y="0"
   inkscape:window-maximized="0"
   inkscape:current-layer="svg2" />
	<path
   style="fill:#ffffff;fill-opacity:1;stroke-width:0.20000000000000001;stroke-linejoin:round"
   inkscape:connector-curvature="0"
   d="m -14.32403,31.564214 3.1669,0 0,-4.7505 c 0,-6.9966 5.6718,-12.6684 12.6684,-12.6684 6.9966,0 12.6684,5.6718 12.6684,12.6684 l 0,4.7505 3.1673,0 10e-5,20.5864 -31.6711,0 0,-20.5864 z m 23.7531002,-4.7505 c 0,-4.3729 -3.5449002,-7.9178 -7.9178002,-7.9178 -4.3729,0 -7.9178,3.5449 -7.9178,7.9178 l 0,4.7505 15.8355002,0 10e-5,-4.7505 z"
   id="path3008"
   inkscape:export-filename="C:\Users\brendan\Documents\Code\WindowsPhone\Pocketailor\Resources\lock.png"
   inkscape:export-xdpi="500"
   inkscape:export-ydpi="500" /><path
   id="path2987"
   d="m 70.704106,33.496672 3.1669,0 0,-4.7505 c 0,-6.9966 5.6718,-12.6684 12.6684,-12.6684 6.9966,0 12.6684,5.6718 12.6684,12.6684 l 0,4.7505 3.167304,0 10e-5,20.5864 -31.671104,0 0,-20.5864 z m 23.7531,-4.7505 c 0,-4.3729 -3.5449,-7.9178 -7.9178,-7.9178 -4.3729,0 -7.9178,3.5449 -7.9178,7.9178 l 0,4.7505 15.8355,0 1e-4,-4.7505 z"
   inkscape:connector-curvature="0"
   style="fill:#000000;fill-opacity:1;stroke-width:0.2;stroke-linejoin:round" /><path
   sodipodi:nodetypes="ccccc"
   d="m 26.448142,32.148773 31.671,0 1e-4,20.5864 -31.6711,0 z"
   id="path3012"
   inkscape:connector-curvature="0"
   style="fill:#000000;fill-opacity:1;stroke-width:0.2;stroke-linejoin:round" /><path
   inkscape:connector-curvature="0"
   id="path3014"
   d="m 31.612134,18.486543 c -4.947343,4.947344 -4.947343,12.951156 4e-6,17.898499 l 3.358729,3.358731 3.358732,-3.358731 -3.358732,-3.358731 c -3.09211,-3.092106 -3.092108,-8.08893 1e-6,-11.181038 3.092106,-3.092109 8.08893,-3.092107 11.181035,0 l 3.358734,3.358731 3.358727,-3.358729 -3.358734,-3.35873 c -4.947341,-4.947343 -12.951155,-4.947343 -17.898496,-2e-6 z"
   style="fill:#000000;fill-opacity:1;stroke-width:0.2;stroke-linejoin:round" /><path
   style="fill:#ffffff;fill-opacity:1;stroke-width:0.20000000000000001;stroke-linejoin:round"
   inkscape:connector-curvature="0"
   id="path2989"
   d="m -52.899943,30.810861 31.671,0 10e-5,20.5864 -31.6711,0 z"
   sodipodi:nodetypes="ccccc"
   inkscape:export-filename="C:\Users\brendan\Documents\Code\WindowsPhone\Pocketailor\Resources\unlock.png"
   inkscape:export-xdpi="500"
   inkscape:export-ydpi="500" /><path
   style="fill:#ffffff;fill-opacity:1;stroke-width:0.20000000000000001;stroke-linejoin:round"
   d="m -57.477754,13.435165 c -6.996599,2e-6 -12.656149,5.659551 -12.656146,12.656153 l -10e-7,4.749962 4.749964,0 -10e-7,-4.749963 c -3e-6,-4.372902 3.533286,-7.906187 7.906187,-7.906187 4.372901,-2e-6 7.906187,3.533287 7.906186,7.906185 l 2e-6,4.749966 4.749958,-10e-7 -2e-6,-4.749965 c 0,-6.996598 -5.65955,-12.656149 -12.656147,-12.65615 z"
   id="path3005"
   inkscape:connector-curvature="0"
   inkscape:export-filename="C:\Users\brendan\Documents\Code\WindowsPhone\Pocketailor\Resources\unlock.png"
   inkscape:export-xdpi="500"
   inkscape:export-ydpi="500" /><path
   style="fill:#000000;fill-opacity:1;stroke-width:0.2;stroke-linejoin:round"
   d="m 82.395278,30.699431 15.835495,0"
   id="path3001"
   inkscape:connector-curvature="0"
   sodipodi:nodetypes="cc" />
<rect
   style="fill:#ffffff;fill-opacity:1;stroke:#ffffff;stroke-width:0.30000001;stroke-miterlimit:4;stroke-dasharray:none;stroke-dashoffset:0"
   id="rect3010"
   width="13.209158"
   height="5.2950506"
   x="90.300537"
   y="28.013527"
   transform="scale(0.99999214,0.99999214)"
   ry="2.6475253" /></svg>