<?xml version="1.0" encoding="UTF-8" standalone="no"?>
<!-- Created with Inkscape (http://www.inkscape.org/) -->

<svg
   xmlns:dc="http://purl.org/dc/elements/1.1/"
   xmlns:cc="http://creativecommons.org/ns#"
   xmlns:rdf="http://www.w3.org/1999/02/22-rdf-syntax-ns#"
   xmlns:svg="http://www.w3.org/2000/svg"
   xmlns="http://www.w3.org/2000/svg"
   xmlns:sodipodi="http://sodipodi.sourceforge.net/DTD/sodipodi-0.dtd"
   xmlns:inkscape="http://www.inkscape.org/namespaces/inkscape"
   width="744.09448819"
   height="1052.3622047"
   id="svg2"
   version="1.1"
   inkscape:version="0.48.4 r9939"
   sodipodi:docname="logo.svg">
  <defs
     id="defs4" />
  <sodipodi:namedview
     id="base"
     pagecolor="#ffffff"
     bordercolor="#666666"
     borderopacity="1.0"
     inkscape:pageopacity="0.0"
     inkscape:pageshadow="2"
     inkscape:zoom="0.35"
     inkscape:cx="264.08406"
     inkscape:cy="737.68227"
     inkscape:document-units="px"
     inkscape:current-layer="layer1"
     showgrid="false"
     inkscape:window-width="1600"
     inkscape:window-height="837"
     inkscape:window-x="-8"
     inkscape:window-y="-8"
     inkscape:window-maximized="1" />
  <metadata
     id="metadata7">
    <rdf:RDF>
      <cc:Work
         rdf:about="">
        <dc:format>image/svg+xml</dc:format>
        <dc:type
           rdf:resource="http://purl.org/dc/dcmitype/StillImage" />
        <dc:title></dc:title>
      </cc:Work>
    </rdf:RDF>
  </metadata>
  <g
     inkscape:label="Layer 1"
     inkscape:groupmode="layer"
     id="layer1">
    <text
       sodipodi:linespacing="125%"
       id="text3942"
       y="240.21933"
       x="120.71428"
       style="font-size:24px;font-style:normal;font-variant:normal;font-weight:bold;font-stretch:normal;line-height:125%;letter-spacing:0px;word-spacing:0px;fill:#000000;fill-opacity:1;stroke:none;font-family:Moire;-inkscape-font-specification:Moire Bold"
       xml:space="preserve"><tspan
         style="font-size:144px;font-style:normal;font-variant:normal;font-weight:bold;font-stretch:normal;font-family:Moire;-inkscape-font-specification:Moire Bold"
         y="240.21933"
         x="120.71428"
         id="tspan3944"
         sodipodi:role="line">LASSIV</tspan></text>
    <text
       sodipodi:linespacing="125%"
       id="text2993"
       y="994.50507"
       x="113.57143"
       style="font-size:24px;font-style:normal;font-variant:normal;font-weight:bold;font-stretch:normal;line-height:125%;letter-spacing:0px;word-spacing:0px;fill:#000000;fill-opacity:1;stroke:none;font-family:Moire;-inkscape-font-specification:Moire Bold"
       xml:space="preserve"><tspan
         style="font-size:144px;font-style:normal;font-variant:normal;font-weight:bold;font-stretch:normal;font-family:Moire;-inkscape-font-specification:Moire Bold"
         y="994.50507"
         x="113.57143"
         id="tspan2995"
         sodipodi:role="line">LASSIV</tspan></text>
    <path
       d="m 149.41741,406.91464 43.61719,0 0,33.30469 -80.50781,0 0,-104.69532 36.89062,0 z"
       style="font-size:144px;font-style:normal;font-variant:normal;font-weight:bold;font-stretch:normal;line-height:125%;letter-spacing:0px;word-spacing:0px;fill:#162d50;fill-opacity:1;stroke:none;font-family:Moire;-inkscape-font-specification:Moire Bold"
       id="path3038"
       inkscape:connector-curvature="0"
       sodipodi:nodetypes="ccccccc" />
    <path
       style="font-size:144px;font-style:normal;font-variant:normal;font-weight:bold;font-stretch:normal;line-height:125%;letter-spacing:0px;word-spacing:0px;fill:#000000;fill-opacity:1;stroke:none;font-family:Moire;-inkscape-font-specification:Moire Bold"
       d="M 909.65625 295.53125 L 909.65625 360.75 C 914.24776 357.75354 919.73538 356 925.625 356 C 941.79905 356 954.90625 369.13845 954.90625 385.3125 C 954.90625 390.75743 953.40033 395.85202 950.8125 400.21875 L 990.1875 400.21875 L 990.1875 364.90625 L 948.5625 364.90625 L 948.5625 295.53125 L 909.65625 295.53125 z M 925.625 373.34375 C 919.01731 373.34375 913.65625 378.70481 913.65625 385.3125 C 913.65625 391.92019 919.01731 397.25 925.625 397.25 C 932.23269 397.25 937.59375 391.92019 937.59375 385.3125 C 937.59375 378.70481 932.23269 373.34375 925.625 373.34375 z M 925.625 374.9375 C 931.34509 374.9375 935.96875 379.59241 935.96875 385.3125 C 935.96875 391.03259 931.34509 395.65625 925.625 395.65625 C 919.90491 395.65625 915.25 391.03259 915.25 385.3125 C 915.25 379.59241 919.90491 374.9375 925.625 374.9375 z M 925.625 381.0625 C 923.28813 381.0625 921.40625 382.97563 921.40625 385.3125 C 921.40625 387.64937 923.28813 389.53125 925.625 389.53125 C 927.96187 389.53125 929.84375 387.64937 929.84375 385.3125 C 929.84375 382.97563 927.96187 381.0625 925.625 381.0625 z "
       id="path2998" />
    <path
       d="m 261.68639,392.31308 -7.43008,-27.47787 -7.78867,27.47787 z m -18.98438,26.03906 -5.45312,21.86719 -38.50781,0 32.84375,-104.69532 45.33593,0 32.70313,104.69532 -38.36719,0 -5.52344,-21.86719 z"
       style="font-size:144px;font-style:normal;font-variant:normal;font-weight:bold;font-stretch:normal;line-height:125%;letter-spacing:0px;word-spacing:0px;fill:#000000;fill-opacity:1;stroke:none;font-family:Moire;-inkscape-font-specification:Moire Bold"
       id="path3040"
       inkscape:connector-curvature="0"
       sodipodi:nodetypes="ccccccccccccc" />
    <path
       sodipodi:nodetypes="ccccccccccccc"
       inkscape:connector-curvature="0"
       id="path3000"
       style="font-size:144px;font-style:normal;font-variant:normal;font-weight:bold;font-stretch:normal;line-height:125%;letter-spacing:0px;word-spacing:0px;fill:#000000;fill-opacity:1;stroke:none;font-family:Moire;-inkscape-font-specification:Moire Bold"
       d="m 1056.8292,352.31308 -5.43,-27.47787 -5.7887,27.47787 z m -14.9843,26.03906 -5.4532,21.86719 -40.50776,0 32.84376,-104.69532 45.3359,0 32.7031,104.69532 -40.3671,0 -5.5235,-21.86719 z" />
    <path
       sodipodi:nodetypes="cccccccccccccccccccsccccccccsssssssccscccsssccccsssccccsc"
       inkscape:connector-curvature="0"
       id="path3002"
       style="font-size:144px;font-style:normal;font-variant:normal;font-weight:bold;font-stretch:normal;line-height:125%;letter-spacing:0px;word-spacing:0px;fill:#000000;fill-opacity:1;stroke:none;font-family:Moire;-inkscape-font-specification:Moire Bold"
       d="m 423.82787,364.32585 c 0,-5.06242 0.78515,-9.50382 2.35547,-13.32422 1.5703,-3.82022 4.0078,-7.00771 7.3125,-9.5625 3.30467,-2.55458 7.54685,-4.46474 12.72657,-5.73046 5.17965,-1.26552 11.4023,-1.89834 18.66796,-1.89844 l 9.49219,0 c 7.40619,1e-4 13.74602,0.6212 19.01953,1.86328 5.27336,1.24229 9.59757,3.15244 12.97266,5.73047 3.3749,2.57822 5.84756,5.85947 7.41797,9.84375 1.57021,3.98446 2.35537,8.71883 2.35547,14.20312 l 0,2.17969 -33.24219,0 c -1.85157,-1.91413 -3.33076,-2.61248 -4.92188,-3.56641 -1.64069,-1.10147 -3.72663,-1.87491 -6.25781,-2.32031 -2.53131,-0.44522 2.44526,-0.66788 -1.07031,-0.66797 -4.17193,9e-5 0.37105,0.15243 -2.37109,0.45703 -2.74223,0.30478 -4.94536,0.85556 -6.60938,1.65235 -1.6641,0.79696 -2.83597,1.89852 -3.51562,3.30469 -0.89273,-5.6618 -1.60672,-1.89757 1.72265,0.86718 1.18351,0.96425 2.42576,1.41796 4.1836,1.86328 1.75779,0.4453 4.01948,0.8321 6.78515,1.16016 l 16.1875,2.88281 c 5.39055,0.65631 10.07804,3.61725 14.0625,4.88282 3.98429,1.26568 7.30069,5.03521 9.94922,7.30859 2.64834,2.27349 4.61709,5.19145 5.90625,8.75391 1.28896,3.56254 1.93349,7.94535 1.93359,13.14843 -10e-5,6.37503 -0.83213,11.71877 -2.49609,16.03125 -1.66416,4.31251 -4.21885,7.76954 -7.66406,10.3711 -3.4454,2.60156 -7.80478,4.46484 -13.07813,5.58984 -5.27351,1.125 -11.54303,1.6875 -18.80859,1.6875 l -12.72656,0 c -7.45317,0 -13.82816,-0.58594 -19.125,-1.75781 -5.2969,-1.17188 -9.63284,-3.11719 -13.00782,-5.83594 -3.37501,-2.71874 -5.84766,-6.30467 -7.41796,-10.75781 -1.57032,-4.45311 -2.35548,-9.98435 -2.35547,-16.59375 l 0,-0.70313 33.38281,0 0,1.125 c 0,3.28128 0.37497,-2.07028 1.125,-0.0547 0.74997,2.01564 1.92184,3.57424 3.51562,4.67578 1.59372,1.10158 3.63278,1.83986 6.11719,2.21484 2.48433,0.37502 4.39849,0.5625 0.92969,0.5625 l -0.33594,0 c -3.18744,0 5.94134,-0.17576 8.26172,-0.52734 2.32024,-0.35155 4.2304,-0.99608 5.73047,-1.9336 1.49992,-0.93748 2.6132,-2.26169 3.33984,-3.97265 0.72649,-1.71091 1.08977,4.07424 1.08985,1.35547 -8e-5,-2.24997 -0.31649,-0.0547 -0.94922,-1.41407 -0.63289,-1.35933 -1.54691,-2.42581 -2.74219,-3.19922 -1.19535,-0.77346 -2.63678,-1.34766 -4.32422,-1.72265 -1.68756,-0.37501 -3.62831,-0.5453 -5.76562,-0.91406 l -17.52344,-3.02344 c -5.53128,-0.70308 -10.21878,-1.78121 -14.0625,-3.23438 -3.84377,-1.45307 -6.96096,-3.39838 -9.35156,-5.83593 -2.39064,-2.43745 -4.12501,-5.39057 -5.20313,-8.85938 -1.07813,-3.46868 -1.61719,-11.57024 -1.61719,-16.30469 z" />
    <path
       d="m 533.66295,336.77926 32.89062,0 0,104.69532 -32.89062,0 z"
       style="font-size:144px;font-style:normal;font-variant:normal;font-weight:bold;font-stretch:normal;line-height:125%;letter-spacing:0px;word-spacing:0px;fill:#000000;fill-opacity:1;stroke:none;font-family:Moire;-inkscape-font-specification:Moire Bold"
       id="path3042"
       inkscape:connector-curvature="0"
       sodipodi:nodetypes="ccccc" />
    <path
       sodipodi:nodetypes="ccccc"
       inkscape:connector-curvature="0"
       id="path3006"
       style="font-size:144px;font-style:normal;font-variant:normal;font-weight:bold;font-stretch:normal;line-height:125%;letter-spacing:0px;word-spacing:0px;fill:#000000;fill-opacity:1;stroke:none;font-family:Moire;-inkscape-font-specification:Moire Bold"
       d="m 1226.9117,292.49355 32.8906,0 0,104.69532 -32.8906,0 z" />
    <path
       d="m 611.95982,336.77926 19.98438,55.03125 18.36718,-55.03125 34.4375,0 -39.16406,104.69532 -28.33594,0 -39.16406,-104.69532 z"
       style="font-size:144px;font-style:normal;font-variant:normal;font-weight:bold;font-stretch:normal;line-height:125%;letter-spacing:0px;word-spacing:0px;fill:#162d50;fill-opacity:1;stroke:none;font-family:Moire;-inkscape-font-specification:Moire Bold"
       id="path3044"
       inkscape:connector-curvature="0"
       sodipodi:nodetypes="cccccccc" />
    <path
       style="font-size:144px;font-style:normal;font-variant:normal;font-weight:bold;font-stretch:normal;line-height:125%;letter-spacing:0px;word-spacing:0px;fill:#000000;fill-opacity:1;stroke:none;font-family:Moire;-inkscape-font-specification:Moire Bold"
       d="M 1271.3438 292.5 L 1310.5 397.1875 L 1338.8438 397.1875 L 1365.4688 326 C 1362.4126 328.82827 1358.3371 330.59375 1353.8438 330.59375 C 1344.3771 330.59375 1336.7188 322.90422 1336.7188 313.4375 C 1336.7188 313.26829 1336.7451 313.10554 1336.75 312.9375 L 1325.1875 347.53125 L 1305.2188 292.5 L 1271.3438 292.5 z M 1343.5625 292.5 L 1339.9062 303.5 C 1343.0138 299.14135 1348.0862 296.28125 1353.8438 296.28125 C 1362.6637 296.28125 1369.9239 302.96319 1370.875 311.53125 L 1378 292.5 L 1343.5625 292.5 z M 1353.8438 306.4375 C 1349.9762 306.4375 1346.8438 309.57001 1346.8438 313.4375 C 1346.8438 317.305 1349.9762 320.4375 1353.8438 320.4375 C 1357.7113 320.4375 1360.8438 317.305 1360.8438 313.4375 C 1360.8438 309.57001 1357.7113 306.4375 1353.8438 306.4375 z M 1353.8438 307.375 C 1357.1917 307.375 1359.9062 310.08952 1359.9062 313.4375 C 1359.9062 316.78549 1357.1917 319.5 1353.8438 319.5 C 1350.4958 319.5 1347.7812 316.78549 1347.7812 313.4375 C 1347.7812 310.08952 1350.4958 307.375 1353.8438 307.375 z M 1353.8438 310.96875 C 1352.476 310.96875 1351.375 312.06973 1351.375 313.4375 C 1351.375 314.80528 1352.476 315.90625 1353.8438 315.90625 C 1355.2115 315.90625 1356.3125 314.80528 1356.3125 313.4375 C 1356.3125 312.06973 1355.2115 310.96875 1353.8438 310.96875 z "
       id="path3008" />
    <path
       d="m 318.22956,364.94565 c 0,-5.06242 0.78515,-9.50382 2.35547,-13.32422 1.5703,-3.82022 4.0078,-7.00771 7.3125,-9.5625 3.30467,-2.55458 7.54685,-4.46474 12.72657,-5.73046 5.17965,-1.26552 11.4023,-1.89834 18.66796,-1.89844 l 9.49219,0 c 7.40619,1e-4 13.74602,0.6212 19.01953,1.86328 5.27336,1.24229 9.59757,3.15244 12.97266,5.73047 3.3749,2.57822 5.84756,5.85947 7.41797,9.84375 1.57021,3.98446 2.35537,8.71883 2.35547,14.20312 l 0,2.17969 -33.24219,0 c -1.85157,-1.91413 -3.33076,-2.61248 -4.92188,-3.56641 -1.64069,-1.10147 -3.72663,-1.87491 -6.25781,-2.32031 l -3.4414,-0.21094 c -2.74223,0.30478 -4.94536,0.85556 -6.60938,1.65235 -1.6641,0.79696 -3.64837,1.70185 -3.51562,3.30469 0.0539,0.65048 1.41646,1.2938 1.89627,1.48274 1.45175,0.57169 2.25214,0.8024 4.00998,1.24772 1.75779,0.4453 4.01948,0.8321 6.78515,1.16016 l 16.1875,2.88281 c 5.39055,0.65631 10.07804,3.61725 14.0625,4.88282 3.98429,1.26568 7.30069,5.03521 9.94922,7.30859 2.64834,2.27349 4.61709,5.19145 5.90625,8.75391 1.28896,3.56254 1.93349,7.94535 1.93359,13.14843 -10e-5,6.37503 -0.83213,11.71877 -2.49609,16.03125 -1.66416,4.31251 -4.21885,7.76954 -7.66406,10.3711 -3.4454,2.60156 -7.80478,4.46484 -13.07813,5.58984 -5.27351,1.125 -11.54303,1.6875 -18.80859,1.6875 l -12.72656,0 c -7.45317,0 -13.82816,-0.58594 -19.125,-1.75781 -5.2969,-1.17188 -9.63284,-3.11719 -13.00782,-5.83594 -3.37501,-2.71874 -5.84766,-6.30467 -7.41796,-10.75781 -1.57032,-4.45311 -2.35548,-9.98435 -2.35547,-16.59375 l 0,-0.70313 33.38281,0 c 0.20156,0.95982 0.3274,1.40391 0.71205,1.99664 0.98544,1.51848 2.33479,2.6479 3.92857,3.74944 1.59372,1.10158 3.63278,1.83986 6.11719,2.21484 2.14432,0.32365 3.76094,0.45249 8.85547,0.0352 2.32024,-0.35155 4.2304,-0.99608 5.73047,-1.9336 1.49992,-0.93748 3.02819,-2.14009 3.33984,-3.97265 0.1892,-1.11251 -1.66176,-2.63533 -2.60156,-3.25782 -1.19535,-0.77346 -2.63678,-1.34766 -4.32422,-1.72265 -1.68756,-0.37501 -3.62831,-0.5453 -5.76562,-0.91406 l -17.52344,-3.02344 c -5.53128,-0.70308 -10.21878,-1.78121 -14.0625,-3.23438 -3.84377,-1.45307 -6.96096,-3.39838 -9.35156,-5.83593 -2.39064,-2.43745 -4.12501,-5.39057 -5.20313,-8.85938 -1.07813,-3.46868 -1.61719,-11.57024 -1.61719,-16.30469 z"
       style="font-size:144px;font-style:normal;font-variant:normal;font-weight:bold;font-stretch:normal;line-height:125%;letter-spacing:0px;word-spacing:0px;fill:#ff2a2a;fill-opacity:1;stroke:none;font-family:Moire;-inkscape-font-specification:Moire Bold"
       id="path3046"
       inkscape:connector-curvature="0"
       sodipodi:nodetypes="ccccccccccccccccsssccccccccsssssssccacsccscssccccsc" />
    <path
       sodipodi:nodetypes="ccccccccccccccccsssccccccccsssssssccacsccscssccccsc"
       inkscape:connector-curvature="0"
       id="path3002-1"
       style="font-size:144px;font-style:normal;font-variant:normal;font-weight:bold;font-stretch:normal;line-height:125%;letter-spacing:0px;word-spacing:0px;fill:#000000;fill-opacity:1;stroke:none;font-family:Moire;-inkscape-font-specification:Moire Bold"
       d="m 1115.3724,324.94565 c 0,-5.06242 0.7852,-9.50382 2.3555,-13.32422 1.5703,-3.82022 4.0078,-7.00771 7.3125,-9.5625 3.3047,-2.55458 7.5468,-4.46474 12.7266,-5.73046 5.1796,-1.26552 11.4023,-1.89834 18.6679,-1.89844 l 9.4922,0 c 7.4062,1e-4 13.746,0.6212 19.0195,1.86328 5.2734,1.24229 9.5976,3.15244 12.9727,5.73047 3.3749,2.57822 5.8476,5.85947 7.418,9.84375 1.5702,3.98446 2.3553,8.71883 2.3554,14.20312 l 0,2.17969 -33.2422,0 c -1.8515,-1.91413 -3.3307,-2.61248 -4.9218,-3.56641 -1.6407,-1.10147 -3.7267,-1.87491 -6.2578,-2.32031 l -3.4414,-0.21094 c -2.7423,0.30478 -4.9454,0.85556 -6.6094,1.65235 -1.6641,0.79696 -3.6484,1.70185 -3.5156,3.30469 0.054,0.65048 1.4164,1.2938 1.8962,1.48274 1.4518,0.57169 2.2522,0.8024 4.01,1.24772 1.7578,0.4453 4.0195,0.8321 6.7852,1.16016 l 16.1875,2.88281 c 5.3905,0.65631 10.078,3.61725 14.0625,4.88282 3.9842,1.26568 7.3006,5.03521 9.9492,7.30859 2.6483,2.27349 4.6171,5.19145 5.9062,8.75391 1.289,3.56254 1.9335,7.94535 1.9336,13.14843 -10e-5,6.37503 -0.8321,11.71877 -2.4961,16.03125 -1.6641,4.31251 -4.2188,7.76954 -7.664,10.3711 -3.4454,2.60156 -7.8048,4.46484 -13.0782,5.58984 -5.2735,1.125 -11.543,1.6875 -18.8086,1.6875 l -12.7265,0 c -7.4532,0 -13.8282,-0.58594 -19.125,-1.75781 -5.2969,-1.17188 -9.6329,-3.11719 -13.0078,-5.83594 -3.375,-2.71874 -5.8477,-6.30467 -7.418,-10.75781 -1.5703,-4.45311 -2.3555,-9.98435 -2.3555,-16.59375 l 0,-0.70313 33.3828,0 c 0.2016,0.95982 0.3274,1.40391 0.7121,1.99664 0.9854,1.51848 2.3348,2.6479 3.9286,3.74944 1.5937,1.10158 3.6327,1.83986 6.1172,2.21484 2.1443,0.32365 3.7609,0.45249 8.8554,0.0352 2.3203,-0.35155 4.2304,-0.99608 5.7305,-1.9336 1.4999,-0.93748 3.0282,-2.14009 3.3398,-3.97265 0.1892,-1.11251 -1.6617,-2.63533 -2.6015,-3.25782 -1.1954,-0.77346 -2.6368,-1.34766 -4.3242,-1.72265 -1.6876,-0.37501 -3.6284,-0.5453 -5.7657,-0.91406 l -17.5234,-3.02344 c -5.5313,-0.70308 -10.2188,-1.78121 -14.0625,-3.23438 -3.8438,-1.45307 -6.961,-3.39838 -9.3516,-5.83593 -2.3906,-2.43745 -4.125,-5.39057 -5.2031,-8.85938 -1.0781,-3.46868 -1.6172,-11.57024 -1.6172,-16.30469 z" />
    <text
       xml:space="preserve"
       style="font-size:24px;font-style:normal;font-variant:normal;font-weight:normal;font-stretch:normal;line-height:125%;letter-spacing:0px;word-spacing:0px;fill:#000000;fill-opacity:1;stroke:none;font-family:Moire;-inkscape-font-specification:Moire"
       x="134.35028"
       y="829.11847"
       id="text3034"
       sodipodi:linespacing="125%"><tspan
         sodipodi:role="line"
         id="tspan3036"
         x="134.35028"
         y="829.11847"
         style="font-size:144px;font-style:normal;font-variant:normal;font-weight:normal;font-stretch:normal;font-family:Lobster;-inkscape-font-specification:Lobster">LassiV</tspan></text>
    <path
       transform="matrix(0.80208334,0,0,0.80208334,211.02888,-76.951699)"
       d="m 937.14283,386.64789 a 29.285715,29.285715 0 1 1 -58.57143,0 29.285715,29.285715 0 1 1 58.57143,0 z"
       sodipodi:ry="29.285715"
       sodipodi:rx="29.285715"
       sodipodi:cy="386.64789"
       sodipodi:cx="907.85712"
       id="path3820"
       style="fill:#d35f8d;fill-opacity:1;stroke:#ffffff;stroke-width:10;stroke-miterlimit:4;stroke-opacity:1;stroke-dasharray:none;stroke-dashoffset:0"
       sodipodi:type="arc" />
    <path
       transform="matrix(0.65625001,0,0,0.65625001,999.79423,231.11939)"
       d="m 937.14283,386.64789 a 29.285715,29.285715 0 1 1 -58.57143,0 29.285715,29.285715 0 1 1 58.57143,0 z"
       sodipodi:ry="29.285715"
       sodipodi:rx="29.285715"
       sodipodi:cy="386.64789"
       sodipodi:cx="907.85712"
       id="path3822"
       style="fill:#93ac93;fill-opacity:1;stroke:#ffffff;stroke-width:10;stroke-miterlimit:4;stroke-opacity:1;stroke-dasharray:none;stroke-dashoffset:0"
       sodipodi:type="arc" />
    <path
       sodipodi:type="arc"
       style="fill:#8dd35f;fill-opacity:1;stroke:#ffffff;stroke-width:10;stroke-miterlimit:4;stroke-opacity:1;stroke-dasharray:none;stroke-dashoffset:0"
       id="path3048"
       sodipodi:cx="907.85712"
       sodipodi:cy="386.64789"
       sodipodi:rx="29.285715"
       sodipodi:ry="29.285715"
       d="m 937.14283,386.64789 a 29.285715,29.285715 0 1 1 -58.57143,0 29.285715,29.285715 0 1 1 58.57143,0 z"
       transform="matrix(0.6685437,0,0,0.6685437,835.27345,255.87388)" />
    <path
       sodipodi:type="arc"
       style="fill:#8080ff;fill-opacity:1;stroke:#ffffff;stroke-width:0;stroke-miterlimit:4;stroke-opacity:1;stroke-dasharray:none;stroke-dashoffset:0"
       id="path3946"
       sodipodi:cx="907.85712"
       sodipodi:cy="386.64789"
       sodipodi:rx="29.285715"
       sodipodi:ry="29.285715"
       d="m 937.14283,386.64789 a 29.285715,29.285715 0 1 1 -58.57143,0 29.285715,29.285715 0 1 1 58.57143,0 z"
       transform="matrix(0.80208334,0,0,0.80208334,408.05867,89.335544)" />
    <path
       transform="matrix(0.80208334,0,0,0.80208334,298.05867,203.62126)"
       d="m 937.14283,386.64789 a 29.285715,29.285715 0 1 1 -58.57143,0 29.285715,29.285715 0 1 1 58.57143,0 z"
       sodipodi:ry="29.285715"
       sodipodi:rx="29.285715"
       sodipodi:cy="386.64789"
       sodipodi:cx="907.85712"
       id="path3820-7"
       style="fill:#8080ff;fill-opacity:1;stroke:#ffffff;stroke-width:0;stroke-miterlimit:4;stroke-opacity:1;stroke-dasharray:none;stroke-dashoffset:0"
       sodipodi:type="arc" />
    <path
       sodipodi:type="arc"
       style="fill:#000000;fill-opacity:1;stroke:#ffffff;stroke-width:10;stroke-miterlimit:4;stroke-opacity:1;stroke-dasharray:none;stroke-dashoffset:0"
       id="path3860"
       sodipodi:cx="907.85712"
       sodipodi:cy="386.64789"
       sodipodi:rx="29.285715"
       sodipodi:ry="29.285715"
       d="m 937.14283,386.64789 a 29.285715,29.285715 0 1 1 -58.57143,0 29.285715,29.285715 0 1 1 58.57143,0 z"
       transform="matrix(0.80208334,0,0,0.80208334,-279.89342,509.90327)" />
    <path
       transform="matrix(0.80208334,0,0,0.80208334,-568.46485,517.76041)"
       d="m 937.14283,386.64789 a 29.285715,29.285715 0 1 1 -58.57143,0 29.285715,29.285715 0 1 1 58.57143,0 z"
       sodipodi:ry="29.285715"
       sodipodi:rx="29.285715"
       sodipodi:cy="386.64789"
       sodipodi:cx="907.85712"
       id="path3820-4"
       style="fill:#000000;fill-opacity:1;stroke:#ffffff;stroke-width:10;stroke-miterlimit:4;stroke-opacity:1;stroke-dasharray:none;stroke-dashoffset:0"
       sodipodi:type="arc" />
    <path
       inkscape:connector-curvature="0"
       id="path3931"
       d="m 984.56087,293.71415 c -16.17411,0 -29.28131,13.13845 -29.28131,29.3125 0,16.17405 13.1072,29.28125 29.28131,29.28125 16.17403,0 29.28123,-13.1072 29.28123,-29.28125 0,-16.17405 -13.1072,-29.3125 -29.28123,-29.3125 z m 0,17.34375 c 6.6077,0 11.9687,5.36106 11.9687,11.96875 0,6.60769 -5.361,11.9375 -11.9687,11.9375 -6.6078,0 -11.96881,-5.32981 -11.96881,-11.9375 0,-6.60769 5.36101,-11.96875 11.96881,-11.96875 z m 0,1.59375 c -5.7202,0 -10.37506,4.65491 -10.37506,10.375 0,5.72009 4.65486,10.34375 10.37506,10.34375 5.7201,0 10.3437,-4.62366 10.3437,-10.34375 0,-5.72009 -4.6236,-10.375 -10.3437,-10.375 z m 0,6.125 c 2.3368,0 4.2187,1.91313 4.2187,4.25 0,2.33687 -1.8819,4.21875 -4.2187,4.21875 -2.3369,0 -4.2188,-1.88188 -4.2188,-4.21875 0,-2.33687 1.8819,-4.25 4.2188,-4.25 z"
       style="fill:#000000;fill-opacity:1;stroke:#ffffff;stroke-width:0;stroke-miterlimit:4;stroke-opacity:1;stroke-dasharray:none;stroke-dashoffset:0" />
    <path
       style="fill:#000000;fill-opacity:1;stroke:#ffffff;stroke-width:0;stroke-miterlimit:4;stroke-opacity:1;stroke-dasharray:none;stroke-dashoffset:0"
       d="m 1332.418,470.85701 c -16.1741,0 -29.2813,13.13845 -29.2813,29.3125 0,16.17405 13.1072,29.28125 29.2813,29.28125 16.174,0 29.2812,-13.1072 29.2812,-29.28125 0,-16.17405 -13.1072,-29.3125 -29.2812,-29.3125 z m 0,17.34375 c 6.6077,0 11.9687,5.36106 11.9687,11.96875 0,6.60769 -5.361,11.9375 -11.9687,11.9375 -6.6078,0 -11.9688,-5.32981 -11.9688,-11.9375 0,-6.60769 5.361,-11.96875 11.9688,-11.96875 z m 0,1.59375 c -5.7202,0 -10.375,4.65491 -10.375,10.375 0,5.72009 4.6548,10.34375 10.375,10.34375 5.7201,0 10.3437,-4.62366 10.3437,-10.34375 0,-5.72009 -4.6236,-10.375 -10.3437,-10.375 z m 0,6.125 c 2.3368,0 4.2187,1.91313 4.2187,4.25 0,2.33687 -1.8819,4.21875 -4.2187,4.21875 -2.3369,0 -4.2188,-1.88188 -4.2188,-4.21875 0,-2.33687 1.8819,-4.25 4.2188,-4.25 z"
       id="path3818-4"
       inkscape:connector-curvature="0" />
    <text
       xml:space="preserve"
       style="font-size:24px;font-style:normal;font-variant:normal;font-weight:normal;font-stretch:normal;line-height:125%;letter-spacing:0px;word-spacing:0px;fill:#000000;fill-opacity:1;stroke:none;font-family:Impact;-inkscape-font-specification:Impact"
       x="127.14286"
       y="59.505039"
       id="text3938"
       sodipodi:linespacing="125%"><tspan
         sodipodi:role="line"
         id="tspan3940"
         x="127.14286"
         y="59.505039"
         style="font-size:144px">LASSIV</tspan></text>
    <rect
       style="fill:#000000;fill-opacity:1;stroke:#ffffff;stroke-width:0;stroke-miterlimit:4;stroke-opacity:1;stroke-dasharray:none;stroke-dashoffset:0"
       id="rect3989"
       width="1246.5282"
       height="670.74127"
       x="-1394.0105"
       y="13.925366" />
    <path
       inkscape:connector-curvature="0"
       id="path3991"
       d="m -635.40622,297.77578 c -16.1741,0 -29.2813,13.13845 -29.2813,29.3125 0,16.17405 13.1072,29.28125 29.2813,29.28125 16.174,0 29.2812,-13.1072 29.2812,-29.28125 0,-16.17405 -13.1072,-29.3125 -29.2812,-29.3125 z m 0,17.34375 c 6.6077,0 11.9687,5.36106 11.9687,11.96875 0,6.60769 -5.361,11.9375 -11.9687,11.9375 -6.6078,0 -11.9688,-5.32981 -11.9688,-11.9375 0,-6.60769 5.361,-11.96875 11.9688,-11.96875 z m 0,1.59375 c -5.7202,0 -10.375,4.65491 -10.375,10.375 0,5.72009 4.6548,10.34375 10.375,10.34375 5.7201,0 10.3437,-4.62366 10.3437,-10.34375 0,-5.72009 -4.6236,-10.375 -10.3437,-10.375 z m 0,6.125 c 2.3368,0 4.2187,1.91313 4.2187,4.25 0,2.33687 -1.8819,4.21875 -4.2187,4.21875 -2.3369,0 -4.2188,-1.88188 -4.2188,-4.21875 0,-2.33687 1.8819,-4.25 4.2188,-4.25 z"
       style="fill:#ffffff;fill-opacity:1;stroke:#ffffff;stroke-width:0;stroke-miterlimit:4;stroke-opacity:1;stroke-dasharray:none;stroke-dashoffset:0" />
    <path
       inkscape:connector-curvature="0"
       id="path3993"
       d="m -1077.853,317.97883 c -16.1741,0 -29.2813,13.13845 -29.2813,29.3125 0,16.17405 13.1072,29.28125 29.2813,29.28125 16.174,0 29.2812,-13.1072 29.2812,-29.28125 0,-16.17405 -13.1072,-29.3125 -29.2812,-29.3125 z m 0,17.34375 c 6.6077,0 11.9687,5.36106 11.9687,11.96875 0,6.60769 -5.361,11.9375 -11.9687,11.9375 -6.6078,0 -11.9688,-5.32981 -11.9688,-11.9375 0,-6.60769 5.361,-11.96875 11.9688,-11.96875 z m 0,1.59375 c -5.7202,0 -10.375,4.65491 -10.375,10.375 0,5.72009 4.6548,10.34375 10.375,10.34375 5.7201,0 10.3437,-4.62366 10.3437,-10.34375 0,-5.72009 -4.6236,-10.375 -10.3437,-10.375 z m 0,6.125 c 2.3368,0 4.2187,1.91313 4.2187,4.25 0,2.33687 -1.8819,4.21875 -4.2187,4.21875 -2.3369,0 -4.2188,-1.88188 -4.2188,-4.21875 0,-2.33687 1.8819,-4.25 4.2188,-4.25 z"
       style="fill:#ffffff;fill-opacity:1;stroke:#ffffff;stroke-width:0;stroke-miterlimit:4;stroke-opacity:1;stroke-dasharray:none;stroke-dashoffset:0" />
    <path
       inkscape:connector-curvature="0"
       id="path3995"
       d="m -945.78287,304.88746 c -9.75823,0 -17.66614,7.92675 -17.66614,17.68497 0,9.75821 7.90791,17.6661 17.66614,17.6661 9.75818,0 17.66609,-7.90789 17.66609,-17.6661 0,-9.75822 -7.90791,-17.68497 -17.66609,-17.68497 z m 0,10.46392 c 3.98659,0 7.22102,3.23446 7.22102,7.22105 0,3.98658 -3.23443,7.20219 -7.22102,7.20219 -3.98665,0 -7.22108,-3.21561 -7.22108,-7.20219 0,-3.98659 3.23443,-7.22105 7.22108,-7.22105 z m 0,0.96155 c -3.45114,0 -6.25949,2.80842 -6.25949,6.2595 0,3.45107 2.80835,6.24064 6.25949,6.24064 3.45108,0 6.24061,-2.78957 6.24061,-6.24064 0,-3.45108 -2.78953,-6.2595 -6.24061,-6.2595 z m 0,3.69536 c 1.40985,0 2.54525,1.15424 2.54525,2.56414 0,1.40989 -1.1354,2.54527 -2.54525,2.54527 -1.40991,0 -2.54531,-1.13538 -2.54531,-2.54527 0,-1.4099 1.1354,-2.56414 2.54531,-2.56414 z"
       style="fill:#ffffff;fill-opacity:1;stroke:#ffffff;stroke-width:0;stroke-miterlimit:4;stroke-opacity:1;stroke-dasharray:none;stroke-dashoffset:0" />
    <path
       inkscape:connector-curvature="0"
       id="path3997"
       d="m -594.49345,308.88746 c -9.75823,0 -17.66614,7.92675 -17.66614,17.68497 0,9.75821 7.90791,17.6661 17.66614,17.6661 9.75818,0 17.66609,-7.90789 17.66609,-17.6661 0,-9.75822 -7.90791,-17.68497 -17.66609,-17.68497 z m 0,10.46392 c 3.98659,0 7.22102,3.23446 7.22102,7.22105 0,3.98658 -3.23443,7.20219 -7.22102,7.20219 -3.98665,0 -7.22108,-3.21561 -7.22108,-7.20219 0,-3.98659 3.23443,-7.22105 7.22108,-7.22105 z m 0,0.96155 c -3.45114,0 -6.25949,2.80842 -6.25949,6.2595 0,3.45107 2.80835,6.24064 6.25949,6.24064 3.45108,0 6.24061,-2.78957 6.24061,-6.24064 0,-3.45108 -2.78953,-6.2595 -6.24061,-6.2595 z m 0,3.69536 c 1.40985,0 2.54525,1.15424 2.54525,2.56414 0,1.40989 -1.1354,2.54527 -2.54525,2.54527 -1.40991,0 -2.54531,-1.13538 -2.54531,-2.54527 0,-1.4099 1.1354,-2.56414 2.54531,-2.56414 z"
       style="fill:#ffffff;fill-opacity:1;stroke:#ffffff;stroke-width:0;stroke-miterlimit:4;stroke-opacity:1;stroke-dasharray:none;stroke-dashoffset:0" />
    <path
       inkscape:connector-curvature="0"
       id="path3999"
       d="m -745.14332,247.26815 c -6.41034,0 -11.60518,5.20723 -11.60518,11.61758 0,6.41035 5.19484,11.60519 11.60518,11.60519 6.41035,0 11.60519,-5.19484 11.60519,-11.60519 0,-6.41035 -5.19484,-11.61758 -11.60519,-11.61758 z m 0,6.87394 c 2.61888,0 4.74361,2.12478 4.74361,4.74364 0,2.61886 -2.12473,4.73125 -4.74361,4.73125 -2.61893,0 -4.74367,-2.11239 -4.74367,-4.73125 0,-2.61886 2.12474,-4.74364 4.74367,-4.74364 z m 0,0.63166 c -2.26709,0 -4.11198,1.8449 -4.11198,4.11198 0,2.26707 1.84489,4.09959 4.11198,4.09959 2.2671,0 4.09957,-1.83252 4.09957,-4.09959 0,-2.26708 -1.83247,-4.11198 -4.09957,-4.11198 z m 0,2.42755 c 0.92613,0 1.67199,0.75824 1.67199,1.68443 0,0.92618 -0.74586,1.67204 -1.67199,1.67204 -0.92618,0 -1.67205,-0.74586 -1.67205,-1.67204 0,-0.92619 0.74587,-1.68443 1.67205,-1.68443 z"
       style="fill:#ffffff;fill-opacity:1;stroke:#ffffff;stroke-width:0;stroke-miterlimit:4;stroke-opacity:1;stroke-dasharray:none;stroke-dashoffset:0" />
    <path
       inkscape:connector-curvature="0"
       id="path4001"
       d="m -848.58487,326.76563 c -9.75823,0 -17.66614,7.92675 -17.66614,17.68497 0,9.75821 7.90791,17.6661 17.66614,17.6661 9.75818,0 17.66609,-7.90789 17.66609,-17.6661 0,-9.75822 -7.90791,-17.68497 -17.66609,-17.68497 z m 0,10.46392 c 3.98659,0 7.22102,3.23446 7.22102,7.22105 0,3.98658 -3.23443,7.20219 -7.22102,7.20219 -3.98665,0 -7.22108,-3.21561 -7.22108,-7.20219 0,-3.98659 3.23443,-7.22105 7.22108,-7.22105 z m 0,0.96155 c -3.45114,0 -6.25949,2.80842 -6.25949,6.2595 0,3.45107 2.80835,6.24064 6.25949,6.24064 3.45108,0 6.24061,-2.78957 6.24061,-6.24064 0,-3.45108 -2.78953,-6.2595 -6.24061,-6.2595 z m 0,3.69536 c 1.40985,0 2.54525,1.15424 2.54525,2.56414 0,1.40989 -1.1354,2.54527 -2.54525,2.54527 -1.40991,0 -2.54531,-1.13538 -2.54531,-2.54527 0,-1.4099 1.1354,-2.56414 2.54531,-2.56414 z"
       style="fill:#ffffff;fill-opacity:1;stroke:#ffffff;stroke-width:0;stroke-miterlimit:4;stroke-opacity:1;stroke-dasharray:none;stroke-dashoffset:0" />
    <path
       style="fill:#ffffff;fill-opacity:1;stroke:#ffffff;stroke-width:0;stroke-miterlimit:4;stroke-opacity:1;stroke-dasharray:none;stroke-dashoffset:0"
       d="m -775.2744,375.51692 c -37.9211,0 -68.6517,30.80385 -68.6517,68.7249 0,37.92102 30.7306,68.65158 68.6517,68.65158 37.9209,0 68.65153,-30.73056 68.65153,-68.65158 0,-37.92105 -30.73063,-68.7249 -68.65153,-68.7249 z m 0,40.66345 c 15.49214,0 28.06134,12.56931 28.06134,28.06145 0,15.4921 -12.5692,27.98817 -28.06134,27.98817 -15.49237,0 -28.06157,-12.49607 -28.06157,-27.98817 0,-15.49214 12.5692,-28.06145 28.06157,-28.06145 z m 0,3.73664 c -13.41135,0 -24.32477,10.9137 -24.32477,24.32481 0,13.41108 10.91342,24.25152 24.32477,24.25152 13.41111,0 24.2514,-10.84044 24.2514,-24.25152 0,-13.41111 -10.84029,-24.32481 -24.2514,-24.32481 z m 0,14.3604 c 5.47876,0 9.891,4.48545 9.891,9.96441 0,5.47892 -4.41224,9.89108 -9.891,9.89108 -5.479,0 -9.89124,-4.41216 -9.89124,-9.89108 0,-5.47896 4.41224,-9.96441 9.89124,-9.96441 z"
       id="path3818-4-8"
       inkscape:connector-curvature="0" />
    <path
       style="fill:#ffffff;fill-opacity:1;stroke:#ffffff;stroke-width:0;stroke-miterlimit:4;stroke-opacity:1;stroke-dasharray:none;stroke-dashoffset:0"
       d="m -1399.0302,-3.2500514 0,692.9687514 1272.81254,0 0,-692.9687514 -1272.81254,0 z m 662.25004,255.1875014 9.5,0 c 7.40619,10e-5 13.72649,0.63292 19,1.875 5.27336,1.24229 9.62491,3.14072 13,5.71875 3.3749,2.57822 5.83584,5.85947 7.40625,9.84375 1.57021,3.98446 2.34365,8.70321 2.34375,14.1875 l 0,2.1875 -33.21875,0 c -1.85157,-1.91413 -3.34638,-2.60857 -4.9375,-3.5625 -1.64069,-1.10147 -3.71882,-1.8671 -6.25,-2.3125 -2.53131,-0.44522 2.45307,-0.68741 -1.0625,-0.6875 -4.17193,9e-5 0.36714,0.16415 -2.375,0.46875 -2.74223,0.30478 -4.96098,0.85946 -6.625,1.65625 -1.41449,0.67742 -2.45303,1.56993 -3.15625,2.6875 0.35544,0.48844 0.79334,0.98573 1.375,1.46875 1.18351,0.96425 2.42966,1.42968 4.1875,1.875 1.75779,0.4453 4.01558,0.82819 6.78125,1.15625 l 16.1875,2.875 c 5.39055,0.65631 10.07804,3.64068 14.0625,4.90625 3.98429,1.26568 7.28897,5.03912 9.9375,7.3125 2.64834,2.27349 4.61709,5.18754 5.90625,8.75 1.28896,3.56254 1.9374,7.92192 1.9375,13.125 -10e-5,6.37503 -0.83604,11.71877 -2.5,16.03125 -1.66416,4.31251 -4.21104,7.77344 -7.65625,10.375 -3.4454,2.60156 -7.8204,4.46875 -13.09375,5.59375 -5.27351,1.125 -11.51569,1.6875 -18.78125,1.6875 l -12.75,0 c -7.45317,0 -13.82816,-0.57813 -19.125,-1.75 -5.2969,-1.17188 -9.62502,-3.125 -13,-5.84375 -3.37501,-2.71874 -5.83595,-6.29686 -7.40625,-10.75 -1.57032,-4.45311 -2.37501,-9.98435 -2.375,-16.59375 l 0,-0.71875 33.40625,0 0,1.125 c 0,3.28128 0.37497,-2.04683 1.125,-0.0312 0.74997,2.01564 1.90622,3.55471 3.5,4.65625 1.59372,1.10158 3.64059,1.84377 6.125,2.21875 1.24216,0.18751 2.33202,0.34375 2.6875,0.4375 2.17015,-0.0879 5.00128,-0.23125 6.15625,-0.40625 2.32024,-0.35155 4.24993,-0.99998 5.75,-1.9375 1.49992,-0.93748 2.58586,-2.25779 3.3125,-3.96875 0.0307,-0.0723 0.0644,-0.10953 0.0937,-0.15625 -0.63067,-1.30902 -1.52338,-2.3405 -2.6875,-3.09375 -1.19535,-0.77346 -2.62506,-1.34376 -4.3125,-1.71875 -1.68756,-0.37501 -3.64394,-0.53749 -5.78125,-0.90625 l -17.5,-3.03125 c -5.53128,-0.70308 -10.21878,-1.79683 -14.0625,-3.25 -3.84377,-1.45307 -6.9844,-3.37495 -9.375,-5.8125 -2.39064,-2.43745 -4.10938,-5.40619 -5.1875,-8.875 -1.07813,-3.46868 -1.625,-11.57805 -1.625,-16.3125 0,-5.06242 0.77343,-9.4921 2.34375,-13.3125 1.5703,-3.82022 4.0078,-7.00771 7.3125,-9.5625 3.30467,-2.55458 7.57028,-4.45303 12.75,-5.71875 5.17965,-1.26552 11.39059,-1.90615 18.65625,-1.90625 z m -105.59375,0.625 9.5,0 c 7.40619,10e-5 13.72649,0.60167 19,1.84375 5.27336,1.24229 9.59366,3.17197 12.96875,5.75 3.3749,2.57822 5.86709,5.85947 7.4375,9.84375 1.57021,3.98446 2.34365,8.70321 2.34375,14.1875 l 0,2.1875 -33.25,0 c -1.85157,-1.91413 -3.31513,-2.60857 -4.90625,-3.5625 -1.64069,-1.10147 -3.71882,-1.8671 -6.25,-2.3125 l -3.4375,-0.21875 c -2.74223,0.30478 -4.96098,0.85946 -6.625,1.65625 -1.6641,0.79696 -3.63275,1.70966 -3.5,3.3125 0.0539,0.65048 1.39519,1.27981 1.875,1.46875 1.45175,0.57169 2.27341,0.80468 4.03125,1.25 1.75779,0.4453 4.01558,0.82819 6.78125,1.15625 l 16.1875,2.875 c 5.39055,0.65631 10.07804,3.64068 14.0625,4.90625 3.98429,1.26568 7.28897,5.00787 9.9375,7.28125 2.64834,2.27349 4.61709,5.21879 5.90625,8.78125 1.28896,3.56254 1.9374,7.92192 1.9375,13.125 -10e-5,6.37503 -0.83604,11.71877 -2.5,16.03125 -1.66416,4.31251 -4.21104,7.77344 -7.65625,10.375 -3.4454,2.60156 -7.8204,4.46875 -13.09375,5.59375 -5.27351,1.125 -11.54694,1.6875 -18.8125,1.6875 l -12.71875,0 c -7.45317,0 -13.82816,-0.57813 -19.125,-1.75 -5.2969,-1.17188 -9.62502,-3.125 -13,-5.84375 -3.37501,-2.71874 -5.83595,-6.29686 -7.40625,-10.75 -1.57032,-4.45311 -2.37501,-9.98435 -2.375,-16.59375 l 0,-0.71875 33.375,0 c 0.20156,0.95982 0.3341,1.40727 0.71875,2 0.98544,1.51848 2.34372,2.64846 3.9375,3.75 1.59372,1.10158 3.64059,1.84377 6.125,2.21875 2.14432,0.32365 3.74922,0.44854 8.84375,0.0312 2.32024,-0.35155 4.21868,-0.99998 5.71875,-1.9375 1.49992,-0.93748 3.0321,-2.13619 3.34375,-3.96875 0.1892,-1.11251 -1.65395,-2.62751 -2.59375,-3.25 -1.19535,-0.77346 -2.62506,-1.34376 -4.3125,-1.71875 -1.68756,-0.37501 -3.64394,-0.53749 -5.78125,-0.90625 l -17.53125,-3.0312 c -5.53128,-0.70308 -10.21878,-1.79683 -14.0625,-3.25 -3.84377,-1.45307 -6.95315,-3.37495 -9.34375,-5.8125 -2.39064,-2.43745 -4.10938,-5.40619 -5.1875,-8.875 -1.07813,-3.46868 -1.625,-11.57805 -1.625,-16.3125 0,-5.06242 0.77343,-9.4921 2.34375,-13.3125 1.5703,-3.82022 4.0078,-7.00771 7.3125,-9.5625 3.30467,-2.55458 7.57028,-4.45303 12.75,-5.71875 5.17965,-1.26552 11.39059,-1.90615 18.65625,-1.90625 z m -246.78129,1.09375 36.9062,0 0,71.375 43.625,0 0,33.3125 -80.5312,0 0,-104.6875 z m 119.06254,0 45.34375,0 32.71875,104.6875 -38.375,0 -5.53125,-21.875 -23.03125,0 -5.4375,21.875 -38.53124,0 32.84374,-104.6875 z m 302.09375,1.25 32.875,0 0,104.6875 -32.875,0 0,-104.6875 z m 44.40625,0 33.875,0 20,55.03125 18.375,-55.03125 34.4375,0 -39.1875,104.6875 -28.3125,0 -39.1875,-104.6875 z m -120.65625,26.78125 c -0.0642,-0.0174 0.0471,0.46897 0.375,1.15625 -0.18708,-0.80211 -0.32309,-1.14217 -0.375,-1.15625 z m -203.15625,1.28125 -7.78125,27.46875 15.21875,0 -7.4375,-27.46875 z m 230.96875,42.90625 c -0.065,-0.0112 -0.1687,0.0838 -0.28125,0.125 0.18624,0.68133 0.31674,1.60469 0.375,1.6875 0.0159,-0.0699 0.0312,-0.29394 0.0312,-0.71875 -3e-5,-0.84374 -0.036,-1.07837 -0.125,-1.09375 z"
       id="rect3981"
       inkscape:connector-curvature="0" />
    <path
       inkscape:connector-curvature="0"
       id="path4003"
       d="m -1017.6505,254.29861 c -17.2869,0 -31.2959,14.04241 -31.2959,31.32931 0,17.28688 14.009,31.29588 31.2959,31.29588 17.2869,0 31.29587,-14.009 31.29587,-31.29588 0,-17.2869 -14.00897,-31.32931 -31.29587,-31.32931 z m 0,18.53706 c 7.0624,0 12.7922,5.72991 12.7922,12.79225 0,7.06231 -5.7298,12.75884 -12.7922,12.75884 -7.0624,0 -12.7923,-5.69653 -12.7923,-12.75884 0,-7.06234 5.7299,-12.79225 12.7923,-12.79225 z m 0,1.70341 c -6.1138,0 -11.0888,4.97517 -11.0888,11.08884 0,6.11364 4.975,11.05543 11.0888,11.05543 6.1137,0 11.0554,-4.94179 11.0554,-11.05543 0,-6.11367 -4.9417,-11.08884 -11.0554,-11.08884 z m 0,6.54641 c 2.4976,0 4.509,2.04476 4.509,4.54243 0,2.49765 -2.0114,4.509 -4.509,4.509 -2.4976,0 -4.5091,-2.01135 -4.5091,-4.509 0,-2.49767 2.0115,-4.54243 4.5091,-4.54243 z"
       style="fill:#000000;fill-opacity:1;stroke:#ffffff;stroke-width:0;stroke-miterlimit:4;stroke-opacity:1;stroke-dasharray:none;stroke-dashoffset:0" />
    <rect
       style="fill:#000000;fill-opacity:1;stroke:#ffffff;stroke-width:0;stroke-miterlimit:4;stroke-opacity:1;stroke-dasharray:none;stroke-dashoffset:0"
       id="rect3989-7"
       width="1246.5282"
       height="670.74127"
       x="-1597.1008"
       y="785.9104" />
    <path
       inkscape:connector-curvature="0"
       id="path3991-1"
       d="m -904.50409,1075.4765 c -16.16991,0 -29.27381,13.1351 -29.27381,29.305 0,16.1698 13.1039,29.2737 29.27381,29.2737 16.16984,0 29.27367,-13.1039 29.27367,-29.2737 0,-16.1699 -13.10383,-29.305 -29.27367,-29.305 z m 0,17.3393 c 6.606,0 11.96562,5.3597 11.96562,11.9657 0,6.606 -5.35962,11.9344 -11.96562,11.9344 -6.6061,0 -11.96572,-5.3284 -11.96572,-11.9344 0,-6.606 5.35962,-11.9657 11.96572,-11.9657 z m 0,1.5933 c -5.71873,0 -10.37233,4.6537 -10.37233,10.3724 0,5.7186 4.6536,10.341 10.37233,10.341 5.71863,0 10.34104,-4.6224 10.34104,-10.341 0,-5.7187 -4.62241,-10.3724 -10.34104,-10.3724 z m 0,6.1235 c 2.3362,0 4.21761,1.9126 4.21761,4.2489 0,2.3362 -1.88141,4.2176 -4.21761,4.2176 -2.3363,0 -4.21771,-1.8814 -4.21771,-4.2176 0,-2.3363 1.88141,-4.2489 4.21771,-4.2489 z"
       style="fill:#ffffff;fill-opacity:1;stroke:#ffffff;stroke-width:0;stroke-miterlimit:4;stroke-opacity:1;stroke-dasharray:none;stroke-dashoffset:0" />
    <path
       style="fill:#ffffff;fill-opacity:1;stroke:#ffffff;stroke-width:0;stroke-miterlimit:4;stroke-opacity:1;stroke-dasharray:none;stroke-dashoffset:0"
       d="m -978.36474,1147.5019 c -37.92106,0 -68.65166,30.8039 -68.65166,68.7249 0,37.9211 30.7306,68.6516 68.65166,68.6516 37.9209,0 68.65153,-30.7305 68.65153,-68.6516 0,-37.921 -30.73063,-68.7249 -68.65153,-68.7249 z m 0,40.6635 c 15.49214,0 28.06134,12.5693 28.06134,28.0614 0,15.4921 -12.5692,27.9882 -28.06134,27.9882 -15.49237,0 -28.06156,-12.4961 -28.06156,-27.9882 0,-15.4921 12.56919,-28.0614 28.06156,-28.0614 z m 0,3.7366 c -13.41135,0 -24.32476,10.9137 -24.32476,24.3248 0,13.4111 10.91341,24.2516 24.32476,24.2516 13.41111,0 24.2514,-10.8405 24.2514,-24.2516 0,-13.4111 -10.84029,-24.3248 -24.2514,-24.3248 z m 0,14.3604 c 5.47876,0 9.891,4.4855 9.891,9.9644 0,5.479 -4.41224,9.8911 -9.891,9.8911 -5.479,0 -9.89124,-4.4121 -9.89124,-9.8911 0,-5.4789 4.41224,-9.9644 9.89124,-9.9644 z"
       id="path3818-4-8-1"
       inkscape:connector-curvature="0" />
    <path
       style="fill:#ffffff;fill-opacity:1;stroke:#ffffff;stroke-width:0;stroke-miterlimit:4;stroke-opacity:1;stroke-dasharray:none;stroke-dashoffset:0"
       d="m -1602.1205,768.73495 0,692.96875 1272.81246,0 0,-692.96875 -1272.81246,0 z m 662.25,255.18745 9.5,0 c 7.40619,10e-5 13.72649,0.633 19,1.875 5.27336,1.2423 9.62491,3.1408 13,5.7188 3.3749,2.5782 5.83584,5.8595 7.40625,9.8437 1.57021,3.9845 2.34365,8.7033 2.34375,14.1875 l 0,2.1875 -33.21875,0 c -1.85157,-1.9141 -3.34638,-2.6085 -4.9375,-3.5625 -1.64069,-1.1014 -3.71882,-1.8671 -6.25,-2.3125 -2.53131,-0.4452 2.45307,-0.6874 -1.0625,-0.6875 -4.17193,10e-5 0.36714,0.1642 -2.375,0.4688 -2.74223,0.3048 -4.96098,0.8595 -6.625,1.6562 -1.41449,0.6775 -2.45303,1.57 -3.15625,2.6875 0.35544,0.4885 0.79334,0.9858 1.375,1.4688 1.18351,0.9642 2.42966,1.4297 4.1875,1.875 1.75779,0.4453 4.01558,0.8282 6.78125,1.1562 l 16.1875,2.875 c 5.39055,0.6564 10.07804,3.6407 14.0625,4.9063 3.98429,1.2657 7.28897,5.0391 9.9375,7.3125 2.64834,2.2735 4.61709,5.1875 5.90625,8.75 1.28896,3.5625 1.9374,7.9219 1.9375,13.125 -10e-5,6.375 -0.83604,11.7188 -2.5,16.0312 -1.66416,4.3126 -4.21104,7.7735 -7.65625,10.375 -3.4454,2.6016 -7.8204,4.4688 -13.09375,5.5938 -5.27351,1.125 -11.51569,1.6875 -18.78125,1.6875 l -12.75,0 c -7.45317,0 -13.82816,-0.5781 -19.125,-1.75 -5.2969,-1.1719 -9.62502,-3.125 -13,-5.8438 -3.37501,-2.7187 -5.83595,-6.2968 -7.40625,-10.75 -1.57032,-4.4531 -2.37501,-9.9843 -2.375,-16.5937 l 0,-0.7188 33.40625,0 0,1.125 c 0,3.2813 0.37497,-2.0468 1.125,-0.031 0.74997,2.0157 1.90622,3.5548 3.5,4.6563 1.59372,1.1016 3.64059,1.8438 6.125,2.2187 1.24216,0.1876 2.33202,0.3438 2.6875,0.4375 2.17015,-0.088 5.00128,-0.2312 6.15625,-0.4062 2.32024,-0.3516 4.24993,-1 5.75,-1.9375 1.49992,-0.9375 2.58586,-2.2578 3.3125,-3.9688 0.0307,-0.072 0.0644,-0.1095 0.0937,-0.1562 -0.63067,-1.309 -1.52338,-2.3405 -2.6875,-3.0938 -1.19535,-0.7734 -2.62506,-1.3437 -4.3125,-1.7187 -1.68756,-0.375 -3.64394,-0.5375 -5.78125,-0.9063 l -17.5,-3.0312 c -5.53128,-0.7031 -10.21878,-1.7968 -14.0625,-3.25 -3.84377,-1.4531 -6.9844,-3.375 -9.375,-5.8125 -2.39064,-2.4375 -4.10938,-5.4062 -5.1875,-8.875 -1.07813,-3.4687 -1.625,-11.5781 -1.625,-16.3125 0,-5.0624 0.77343,-9.4921 2.34375,-13.3125 1.5703,-3.8202 4.0078,-7.0077 7.3125,-9.5625 3.30467,-2.5546 7.57028,-4.453 12.75,-5.7188 5.17965,-1.2655 11.39059,-1.9061 18.65625,-1.9062 z m -105.5937,0.625 9.5,0 c 7.4061,10e-5 13.7264,0.6017 19,1.8438 5.2733,1.2423 9.5936,3.172 12.9687,5.75 3.3749,2.5782 5.86709,5.8595 7.4375,9.8437 1.57021,3.9845 2.34365,8.7033 2.34375,14.1875 l 0,2.1875 -33.24995,0 c -1.8516,-1.9141 -3.3152,-2.6085 -4.9063,-3.5625 -1.6407,-1.1014 -3.7188,-1.8671 -6.25,-2.3125 l -3.4375,-0.2187 c -2.7422,0.3048 -4.961,0.8595 -6.625,1.6562 -1.6641,0.797 -3.6327,1.7097 -3.5,3.3125 0.054,0.6505 1.3952,1.2799 1.875,1.4688 1.4518,0.5717 2.2734,0.8047 4.0313,1.25 1.7577,0.4453 4.0155,0.8282 6.7812,1.1562 l 16.1875,2.875 c 5.3906,0.6564 10.078,3.6407 14.0625,4.9063 3.9843,1.2657 7.289,5.0079 9.9375,7.2812 2.64834,2.2735 4.61709,5.2188 5.90625,8.7813 1.28896,3.5625 1.9374,7.9219 1.9375,13.125 -10e-5,6.375 -0.83604,11.7188 -2.5,16.0312 -1.66416,4.3126 -4.21104,7.7735 -7.65625,10.375 -3.4454,2.6016 -7.8204,4.4688 -13.0937,5.5938 -5.2736,1.125 -11.547,1.6875 -18.8125,1.6875 l -12.7188,0 c -7.4532,0 -13.8282,-0.5781 -19.125,-1.75 -5.2969,-1.1719 -9.625,-3.125 -13,-5.8438 -3.375,-2.7187 -5.8359,-6.2968 -7.4062,-10.75 -1.5704,-4.4531 -2.3751,-9.9843 -2.375,-16.5937 l 0,-0.7188 33.375,0 c 0.2015,0.9599 0.3341,1.4073 0.7187,2 0.9854,1.5185 2.3437,2.6485 3.9375,3.75 1.5937,1.1016 3.6406,1.8438 6.125,2.2188 2.1443,0.3236 3.7492,0.4485 8.8438,0.031 2.3202,-0.3516 4.2186,-1 5.7187,-1.9375 1.4999,-0.9375 3.0321,-2.1362 3.3438,-3.9688 0.1892,-1.1125 -1.654,-2.6275 -2.5938,-3.25 -1.1953,-0.7734 -2.6251,-1.3437 -4.3125,-1.7187 -1.6876,-0.375 -3.6439,-0.5375 -5.7812,-0.9063 l -17.5313,-3.0312 c -5.5313,-0.703 -10.2188,-1.7968 -14.0625,-3.25 -3.8438,-1.453 -6.9531,-3.3749 -9.3437,-5.8125 -2.3907,-2.4374 -4.1094,-5.4061 -5.1875,-8.875 -1.0782,-3.4686 -1.625,-11.578 -1.625,-16.3125 0,-5.0624 0.7734,-9.4921 2.3437,-13.3125 1.5703,-3.8202 4.0078,-7.0077 7.3125,-9.5625 3.3047,-2.5545 7.5703,-4.453 12.75,-5.7187 5.1797,-1.2655 11.3906,-1.9062 18.6563,-1.9063 z m -246.7813,1.0938 36.9062,0 0,71.375 43.625,0 0,33.3125 -80.5312,0 0,-104.6875 z m 119.0625,0 45.3438,0 32.7187,104.6875 -38.375,0 -5.5312,-21.875 -23.0313,0 -5.4375,21.875 -38.5312,0 32.8437,-104.6875 z m 302.09375,1.25 32.875,0 0,104.6875 -32.875,0 0,-104.6875 z m 44.40625,0 33.875,0 20,55.0312 18.375,-55.0312 34.4375,0 -39.1875,104.6875 -28.3125,0 -39.1875,-104.6875 z m -120.65625,26.7812 c -0.0642,-0.017 0.0471,0.469 0.375,1.1563 -0.18708,-0.8021 -0.32309,-1.1422 -0.375,-1.1563 z m -203.15625,1.2813 -7.7812,27.4687 15.2187,0 -7.4375,-27.4687 z m 230.96875,42.9062 c -0.065,-0.011 -0.1687,0.084 -0.28125,0.125 0.18624,0.6814 0.31674,1.6047 0.375,1.6875 0.0159,-0.07 0.0312,-0.2939 0.0312,-0.7187 -3e-5,-0.8437 -0.036,-1.0784 -0.125,-1.0938 z"
       id="rect3981-4"
       inkscape:connector-curvature="0" />
    <path
       inkscape:connector-curvature="0"
       id="path4003-2"
       d="m -1220.7408,1026.2836 c -17.2869,0 -31.2959,14.0424 -31.2959,31.3293 0,17.2869 14.009,31.2959 31.2959,31.2959 17.2869,0 31.2958,-14.009 31.2958,-31.2959 0,-17.2869 -14.0089,-31.3293 -31.2958,-31.3293 z m 0,18.5371 c 7.0624,0 12.7922,5.7299 12.7922,12.7922 0,7.0623 -5.7298,12.7589 -12.7922,12.7589 -7.0624,0 -12.7923,-5.6966 -12.7923,-12.7589 0,-7.0623 5.7299,-12.7922 12.7923,-12.7922 z m 0,1.7034 c -6.1138,0 -11.0888,4.9751 -11.0888,11.0888 0,6.1137 4.975,11.0554 11.0888,11.0554 6.1137,0 11.0554,-4.9417 11.0554,-11.0554 0,-6.1137 -4.9417,-11.0888 -11.0554,-11.0888 z m 0,6.5464 c 2.4976,0 4.509,2.0447 4.509,4.5424 0,2.4977 -2.0114,4.509 -4.509,4.509 -2.4976,0 -4.5091,-2.0113 -4.5091,-4.509 0,-2.4977 2.0115,-4.5424 4.5091,-4.5424 z"
       style="fill:#000000;fill-opacity:1;stroke:#ffffff;stroke-width:0;stroke-miterlimit:4;stroke-opacity:1;stroke-dasharray:none;stroke-dashoffset:0" />
  </g>
</svg>
