<?xml version="1.0" encoding="UTF-8" standalone="no"?>
<!-- Created with Inkscape (http://www.inkscape.org/) -->

<svg
   xmlns:dc="http://purl.org/dc/elements/1.1/"
   xmlns:cc="http://creativecommons.org/ns#"
   xmlns:rdf="http://www.w3.org/1999/02/22-rdf-syntax-ns#"
   xmlns:svg="http://www.w3.org/2000/svg"
   xmlns="http://www.w3.org/2000/svg"
   xmlns:xlink="http://www.w3.org/1999/xlink"
   xmlns:sodipodi="http://sodipodi.sourceforge.net/DTD/sodipodi-0.dtd"
   xmlns:inkscape="http://www.inkscape.org/namespaces/inkscape"
   width="744.09448819"
   height="1052.3622047"
   id="svg2"
   version="1.1"
   inkscape:version="0.48.4 r9939"
   sodipodi:docname="UnLockImages.svg">
  <defs
     id="defs4" />
  <sodipodi:namedview
     id="base"
     pagecolor="#ffffff"
     bordercolor="#666666"
     borderopacity="1.0"
     inkscape:pageopacity="0.0"
     inkscape:pageshadow="2"
     inkscape:zoom="1.4"
     inkscape:cx="398.48983"
     inkscape:cy="792.44925"
     inkscape:document-units="px"
     inkscape:current-layer="layer1"
     showgrid="false"
     inkscape:window-width="1600"
     inkscape:window-height="837"
     inkscape:window-x="-8"
     inkscape:window-y="-8"
     inkscape:window-maximized="1" />
  <metadata
     id="metadata7">
    <rdf:RDF>
      <cc:Work
         rdf:about="">
        <dc:format>image/svg+xml</dc:format>
        <dc:type
           rdf:resource="http://purl.org/dc/dcmitype/StillImage" />
        <dc:title></dc:title>
      </cc:Work>
    </rdf:RDF>
  </metadata>
  <g
     inkscape:label="Layer 1"
     inkscape:groupmode="layer"
     id="layer1">
    <image
       y="292.67996"
       x="-608.03436"
       id="image3114"
       xlink:href="file:///C:/Users/brendan/Documents/Code/WindowsPhone/Resources/ModerUIIcons/WindowsPhone/light/appbar.city.chicago.png"
       height="76"
       width="76" />
    <image
       y="293.69012"
       x="-536.3136"
       id="image3125"
       xlink:href="file:///C:/Users/brendan/Documents/Code/WindowsPhone/Resources/ModerUIIcons/WindowsPhone/light/appbar.city.sanfrancisco.png"
       height="76"
       width="76" />
    <image
       y="297.73074"
       x="-467.6232"
       id="image3136"
       xlink:href="file:///C:/Users/brendan/Documents/Code/WindowsPhone/Resources/ModerUIIcons/WindowsPhone/light/appbar.city.seattle.png"
       height="76"
       width="76" />
    <image
       y="58.580318"
       x="-671.32483"
       id="image3213"
       xlink:href="file:///C:/Users/brendan/Documents/Code/WindowsPhone/Resources/ModerUIIcons/WindowsPhone/light/appbar.smiley.angry.png"
       height="76"
       width="76" />
    <image
       y="61.105709"
       x="-600.10907"
       id="image3224"
       xlink:href="file:///C:/Users/brendan/Documents/Code/WindowsPhone/Resources/ModerUIIcons/WindowsPhone/light/appbar.smiley.happy.png"
       height="76"
       width="76" />
    <image
       y="62.620907"
       x="-531.92383"
       id="image3235"
       xlink:href="file:///C:/Users/brendan/Documents/Code/WindowsPhone/Resources/ModerUIIcons/WindowsPhone/light/appbar.smiley.frown.png"
       height="76"
       width="76" />
    <image
       y="64.641235"
       x="-462.72833"
       id="image3246"
       xlink:href="file:///C:/Users/brendan/Documents/Code/WindowsPhone/Resources/ModerUIIcons/WindowsPhone/light/appbar.smiley.tounge.png"
       height="76"
       width="76" />
    <image
       y="62.620968"
       x="-406.15979"
       id="image3257"
       xlink:href="file:///C:/Users/brendan/Documents/Code/WindowsPhone/Resources/ModerUIIcons/WindowsPhone/light/appbar.smiley.what.png"
       height="76"
       width="76" />
    <image
       y="137.54555"
       x="-665.07574"
       id="image3301"
       xlink:href="file:///C:/Users/brendan/Documents/Code/WindowsPhone/Resources/ModerUIIcons/WindowsPhone/light/appbar.tree.pine.png"
       height="76"
       width="76" />
    <image
       y="215.1268"
       x="-540.42853"
       id="image3323"
       xlink:href="file:///C:/Users/brendan/Documents/Code/WindowsPhone/Resources/ModerUIIcons/WindowsPhone/light/appbar.weather.chance.png"
       height="76"
       width="76" />
    <image
       y="207.04556"
       x="-471.83456"
       id="image3345"
       xlink:href="file:///C:/Users/brendan/Documents/Code/WindowsPhone/Resources/ModerUIIcons/WindowsPhone/light/appbar.weather.snow.png"
       height="76"
       width="76" />
    <image
       y="210.07602"
       x="-405.66956"
       id="image3356"
       xlink:href="file:///C:/Users/brendan/Documents/Code/WindowsPhone/Resources/ModerUIIcons/WindowsPhone/light/appbar.weather.sun.png"
       height="76"
       width="76" />
    <image
       y="214.62167"
       x="-600.53259"
       id="image3367"
       xlink:href="file:///C:/Users/brendan/Documents/Code/WindowsPhone/Resources/ModerUIIcons/WindowsPhone/light/appbar.weather.thunder.png"
       height="76"
       width="76" />
    <image
       y="132.99983"
       x="-531.7356"
       id="image3389"
       xlink:href="file:///C:/Users/brendan/Documents/Code/WindowsPhone/Resources/ModerUIIcons/WindowsPhone/light/appbar.puzzle.round.png"
       height="76"
       width="76" />
    <image
       y="136.96866"
       x="-465.86719"
       id="image3400"
       xlink:href="file:///C:/Users/brendan/Documents/Code/WindowsPhone/Resources/ModerUIIcons/WindowsPhone/light/appbar.quill.png"
       height="76"
       width="76" />
    <image
       y="214.11667"
       x="-663.16205"
       id="image3411"
       xlink:href="file:///C:/Users/brendan/Documents/Code/WindowsPhone/Resources/ModerUIIcons/WindowsPhone/light/appbar.moon.sleep.png"
       height="76"
       width="76" />
    <image
       y="137.0405"
       x="-604.97162"
       id="image3422"
       xlink:href="file:///C:/Users/brendan/Documents/Code/WindowsPhone/Resources/ModerUIIcons/WindowsPhone/light/appbar.martini.png"
       height="76"
       width="76" />
    <image
       y="128.42953"
       x="-408.84436"
       id="image3444"
       xlink:href="file:///C:/Users/brendan/Documents/Code/WindowsPhone/Resources/ModerUIIcons/WindowsPhone/light/appbar.alien.png"
       height="76"
       width="76" />
    <rect
       style="fill:#ff0000;fill-opacity:1;stroke:#ffffff;stroke-width:0.30000000999999998;stroke-miterlimit:4;stroke-dasharray:none;stroke-dashoffset:0"
       id="rect3788"
       width="414.28571"
       height="371.42856"
       x="125"
       y="70.933609"
       ry="26.137697" />
    <path
       id="path3449"
       d="m 271.92788,303.33942 -42.05342,0 0,-7.88502 3.94252,0 0,-2.62837 2.62828,0 0,1.31414 1.31423,0 0,-7.88502 1.31414,0 0,-2.62829 3.94251,0 0,13.14168 2.62837,0 0,-5.25665 2.62829,0 0,-6.57088 2.62837,0 0,9.19916 1.31414,0 0.28586,0 c 3.65665,-5.25665 0.37126,-15.77005 0.37126,-15.77005 l -2.62837,9e-5 c 0,0 0,-2.29986 -1.31415,-2.29986 l -0.65711,-0.98562 4.92814,-1.64266 0,-1.64274 0.93093,0 c 0.56889,-1.1591 0.96571,-2.65892 1.04033,-4.59963 l 0.65711,0 c 0,0 0.0908,2.36036 1.13129,4.59963 l 0.83997,0 0,1.64265 4.92814,1.64275 -0.65712,1.31422 c 0,0 -1.31414,0.65703 -1.31414,1.97126 l -2.62837,-9e-5 c 0,0 -3.2854,10.5134 0.37126,15.77005 l 1.6,0 0,-3.94251 0,-1.31414 0,-1.31414 2.62837,0 0,1.31414 1.31414,0 0,5.25665 2.62837,0 -8e-5,3.9426 1.31414,0 0,-1.31414 2.62838,0 0,2.62828 1.31414,0 8e-5,3.94251 z"
       inkscape:connector-curvature="0"
       style="fill:#ffffff;fill-opacity:1;stroke-width:0.20000000000000001;stroke-linejoin:round"
       inkscape:export-filename="C:\Users\brendan\Documents\Code\WindowsPhone\Pocketailor\Pocketailor\Images\UnlockIcons\Seattle.png"
       inkscape:export-xdpi="500"
       inkscape:export-ydpi="500" />
    <path
       id="path3460"
       d="m 341.88524,306.4396 0,-11.82754 -1.31414,0 0,-1.31422 -2.62837,0 0,1.31422 -1.31415,0 0,2.62829 -2.62837,0 0,-7.88503 -3.94251,0 0,-10.51331 -1.31414,0 0,-1.31422 0,-3.94251 -1.31414,0 0,3.94251 -2.62837,0 0,-3.94251 -1.31415,0 0,3.94251 0,1.31422 -1.31422,0 0,18.39834 -2.62829,0 0,-2.62829 -3.94251,0 0,5.25666 -2.62837,0 0,-13.14168 -3.94251,0 0,2.62828 -1.31415,0 0,7.88503 -1.31422,0 0,-1.31414 -2.62829,0 0,2.62837 -3.94251,0 0,7.88502 42.05341,0 z"
       inkscape:connector-curvature="0"
       style="fill:#ffffff;fill-opacity:1;stroke-width:0.20000000000000001;stroke-linejoin:round"
       inkscape:export-filename="C:\Users\brendan\Documents\Code\WindowsPhone\Pocketailor\Pocketailor\Images\UnlockIcons\Chicago.png"
       inkscape:export-xdpi="500"
       inkscape:export-ydpi="500" />
    <path
       id="path3471"
       d="m 218.57057,301.16808 0,-22.34093 -3.94252,0 0,1.31414 -1.31415,0 0,11.82754 -2.62836,0 0,-2.62829 -3.91504,0 -0.0275,-2.62837 -0.65703,-12.48456 -1.97125,-0.65712 -1.97126,-6.57088 -1.97126,6.57088 -1.97125,0.65712 -0.65711,12.48456 0,5.25666 -1.31415,0 0,-2.62829 -5.25674,0 9e-5,5.25666 -2.62837,0 0,-13.14168 -7.88503,0 0,10.51331 -2.62837,0 0,-1.31414 -1.31414,0 0,10.51339 42.05342,0 z"
       inkscape:connector-curvature="0"
       style="fill:#ffffff;fill-opacity:1;stroke-width:0.20000000000000001;stroke-linejoin:round"
       inkscape:export-filename="C:\Users\brendan\Documents\Code\WindowsPhone\Pocketailor\Pocketailor\Images\UnlockIcons\SanFranscisco.png"
       inkscape:export-xdpi="500"
       inkscape:export-ydpi="500" />
    <path
       id="path3493"
       d="m 151.468,111.14191 c 2.57325,0 4.6593,2.08605 4.6593,4.65939 0,2.57325 -2.08605,4.6593 -4.6593,4.6593 -2.57334,0 -4.65939,-2.08605 -4.65939,-4.6593 0,-2.57334 2.08605,-4.65939 4.65939,-4.65939 z m 18.63729,0 c 2.57326,0 4.6593,2.08613 4.6593,4.65939 0,2.57325 -2.08604,4.6593 -4.6593,4.6593 -2.57326,0 -4.65939,-2.08605 -4.65939,-4.6593 0,-2.57326 2.08613,-4.65939 4.65939,-4.65939 z m -23.77459,15.77013 28.91173,0 c 1.45159,0 2.62836,1.1767 2.62836,2.62829 0,1.45159 -1.17677,2.62837 -2.62836,2.62837 l 0,3.2854 c 0,4.71765 -5.13855,8.54213 -9.8562,8.54213 -4.71774,0 -9.85628,-3.82448 -9.85628,-8.54213 l 0,-3.2854 -9.19925,0 c -1.4516,0 -2.62829,-1.17678 -2.62829,-2.62837 0,-1.45159 1.17669,-2.62829 2.62829,-2.62829 z m 13.14176,5.25666 0,1.97125 c 0,3.26606 2.64762,5.91377 5.91377,5.91377 3.26606,0 5.91377,-2.64771 5.91377,-5.91377 l 0,-1.97125 -3.9426,0 0,3.2854 c 0,1.08871 -0.88254,1.97125 -1.97126,1.97125 -1.08863,0 -1.97125,-0.88254 -1.97125,-1.97125 l 0,-3.2854 -3.94243,0 z"
       inkscape:connector-curvature="0"
       style="fill:#ffffff;fill-opacity:1;stroke-width:0.20000000000000001;stroke-linejoin:round"
       inkscape:export-filename="C:\Users\brendan\Documents\Code\WindowsPhone\Pocketailor\Pocketailor\Images\UnlockIcons\Cheeky.png"
       inkscape:export-xdpi="500"
       inkscape:export-ydpi="500" />
    <path
       id="path3504"
       d="m 394.06226,118.77004 c 2.57326,0 4.65931,2.08605 4.65931,4.65939 0,2.57325 -2.08605,4.6593 -4.65931,4.6593 -2.57334,0 -4.65938,-2.08605 -4.65938,-4.6593 0,-2.57334 2.08604,-4.65939 4.65938,-4.65939 z m 1.25439,19.71256 17.08427,0 c 1.81447,0 3.2854,1.47093 3.2854,3.28548 0,1.81447 -1.47093,3.2854 -3.2854,3.2854 l -17.08427,0 c -1.81447,0 -3.2854,-1.47093 -3.2854,-3.2854 0,-1.81446 1.47093,-3.28548 3.2854,-3.28548 z m 16.42716,-23.65507 c 3.62894,0 6.57088,3.53025 6.57088,7.88502 0,4.35478 -2.94186,7.88503 -6.57088,7.88503 -3.62902,0 -6.57088,-3.53025 -6.57088,-7.88503 0,-4.35477 2.94186,-7.88502 6.57088,-7.88502 z"
       inkscape:connector-curvature="0"
       style="fill:#ffffff;fill-opacity:1;stroke-width:0.20000000000000001;stroke-linejoin:round"
       inkscape:export-filename="C:\Users\brendan\Documents\Code\WindowsPhone\Pocketailor\Pocketailor\Images\UnlockIcons\Confused.png"
       inkscape:export-xdpi="500"
       inkscape:export-ydpi="500" />
    <path
       id="path3515"
       d="m 334.84507,140.48981 17.08428,0 c 1.81447,0 3.2854,1.47093 3.2854,3.28548 0,1.81447 -1.47093,3.2854 -3.2854,3.2854 l -17.08428,0 c -1.81446,0 -3.2854,-1.47093 -3.2854,-3.2854 0,-1.81455 1.47094,-3.28548 3.2854,-3.28548 z m -1.25446,-15.76989 c 2.57325,0 4.6593,2.08605 4.6593,4.6593 0,2.57326 -2.08605,4.65931 -4.6593,4.65931 -2.57326,0 -4.6593,-2.08605 -4.6593,-4.65931 0,-2.57325 2.08604,-4.6593 4.6593,-4.6593 z m 19.59304,-0.11952 c 2.57326,0 4.65938,2.08605 4.65938,4.6593 0,2.57334 -2.08612,4.65939 -4.65938,4.65939 -2.57326,0 -4.6593,-2.08605 -4.6593,-4.65939 0,-2.57325 2.08604,-4.6593 4.6593,-4.6593 z m -4.47538,-0.47318 c -0.94279,0.54431 -2.14846,0.22128 -2.69277,-0.72152 -0.54432,-0.94289 -0.22128,-2.14847 0.72152,-2.69278 l 9.10488,-5.25674 c 0.9428,-0.54432 2.14838,-0.22128 2.69278,0.72152 0.54431,0.94288 0.22127,2.14846 -0.72153,2.69278 l -9.10488,5.25674 z m -19.74708,-5.25674 c -0.9428,-0.54432 -1.26584,-1.7499 -0.72153,-2.69278 0.5444,-0.9428 1.74998,-1.26584 2.69278,-0.72152 l 9.10488,5.25666 c 0.9428,0.54439 1.26584,1.74997 0.72152,2.69277 -0.5444,0.94289 -1.74998,1.26592 -2.69278,0.72161 l -9.10487,-5.25674 z"
       inkscape:connector-curvature="0"
       style="fill:#ffffff;fill-opacity:1;stroke-width:0.20000000000000001;stroke-linejoin:round"
       inkscape:export-filename="C:\Users\brendan\Documents\Code\WindowsPhone\Pocketailor\Pocketailor\Images\UnlockIcons\Angry.png"
       inkscape:export-xdpi="500"
       inkscape:export-ydpi="500" />
    <path
       id="path3537"
       d="m 270.85804,146.91271 c 0,1.49035 -1.32269,2.45315 -3.20978,2.45315 -1.641,0 -2.67311,-1.23479 -3.00262,-2.45315 0.78427,-6.37633 8.80442,-12.26562 17.08419,-12.26562 8.27977,0 16.29992,5.88929 17.08419,12.26562 -0.32951,1.21836 -1.36162,2.45307 -3.0027,2.45307 -1.88701,0 -3.2097,-0.9628 -3.2097,-2.45307 l -0.16169,-0.25697 c -0.88992,-4.03481 -5.34637,-6.44531 -10.7101,-6.44531 -5.36373,0 -9.82017,2.4105 -10.7101,6.44531 l -0.16169,0.25697 z m 6.92928,-22.77893 c 0,3.62894 -2.05932,6.5708 -4.59963,6.5708 -2.54022,0 -4.59954,-2.94186 -4.59954,-6.5708 l 5.25666,-6.50431 c 2.22905,0.45542 3.94251,3.19401 3.94251,6.50431 z m 7.88502,0 c 0,-3.3103 1.71346,-6.04889 3.94252,-6.50431 l 5.25665,6.50431 c 0,3.62894 -2.05932,6.5708 -4.59954,6.5708 -2.54031,0 -4.59963,-2.94186 -4.59963,-6.5708 z"
       inkscape:connector-curvature="0"
       style="fill:#ffffff;fill-opacity:1;stroke-width:0.20000000000000001;stroke-linejoin:round"
       inkscape:export-filename="C:\Users\brendan\Documents\Code\WindowsPhone\Pocketailor\Pocketailor\Images\UnlockIcons\Sad.png"
       inkscape:export-xdpi="500"
       inkscape:export-ydpi="500" />
    <path
       id="path3581"
       d="m 212.75786,132.67928 0.16169,0.32536 c 0.88992,5.10908 5.34637,8.99333 10.7101,8.99333 5.36373,0 9.82018,-3.88416 10.7101,-8.99324 l 0.16169,-0.32537 c 0,-1.88709 1.32269,-3.1062 3.2097,-3.1062 1.64108,0 2.67319,1.56348 3.0027,3.1062 -0.78427,8.07385 -8.80442,15.5311 -17.08419,15.5311 -8.27977,0 -16.29992,-7.45725 -17.08419,-15.53118 0.32951,-1.54264 1.36162,-3.1062 3.0027,-3.1062 1.88701,0 3.2097,1.21919 3.2097,3.1062 z m 1.5531,-18.63729 c 2.57334,0 4.65939,2.08604 4.65939,4.65938 0,2.57326 -2.08605,4.65931 -4.65939,4.65931 -2.57326,0 -4.6593,-2.08605 -4.6593,-4.65931 0,-2.57334 2.08604,-4.65938 4.6593,-4.65938 z m 18.63738,0 c 2.57325,0 4.6593,2.08604 4.6593,4.65938 0,2.57326 -2.08605,4.65931 -4.6593,4.65931 -2.57326,0 -4.65939,-2.08605 -4.65939,-4.65931 0,-2.57334 2.08613,-4.65938 4.65939,-4.65938 z"
       inkscape:connector-curvature="0"
       style="fill:#ffffff;fill-opacity:1;stroke-width:0.20000000000000001;stroke-linejoin:round"
       inkscape:export-filename="C:\Users\brendan\Documents\Code\WindowsPhone\Pocketailor\Pocketailor\Images\UnlockIcons\Happy.png"
       inkscape:export-xdpi="500"
       inkscape:export-ydpi="500" />
    <path
       id="path3614"
       d="m 159.60089,175.04226 9.19916,13.14176 -4.46815,0 7.09652,7.88502 -5.25665,0 6.5708,7.88503 -10.51332,0 0,6.5708 -5.25673,0 0,-6.5708 -10.51331,0 6.57079,-7.88503 -5.25665,0 7.09652,-7.88502 -4.46815,0 9.19917,-13.14176 z"
       inkscape:connector-curvature="0"
       style="fill:#ffffff;fill-opacity:1;stroke-width:0.20000000000000001;stroke-linejoin:round"
       inkscape:export-filename="C:\Users\brendan\Documents\Code\WindowsPhone\Pocketailor\Pocketailor\Images\UnlockIcons\Hiking.png"
       inkscape:export-xdpi="500"
       inkscape:export-ydpi="500" />
    <path
       id="path3625"
       d="m 251.80031,226.01326 c 3.62894,0 6.57088,2.94195 6.57088,6.57088 0,3.62902 -2.94178,6.57072 -6.59761,6.5708 l -21.65709,9e-5 c -1.81447,0 -3.2854,-1.47102 -3.2854,-3.28549 0,-1.60879 1.15628,-2.9475 2.68324,-3.23028 l -0.0549,-0.71223 c 0,-2.46984 1.94686,-4.48508 4.38956,-4.59489 1.08116,-3.06495 4.0031,-5.26139 7.43798,-5.26139 3.26125,0 6.06002,1.97981 7.26003,4.80314 0.95915,-0.54763 2.0697,-0.86063 3.25328,-0.86063 z m 0.65711,14.45599 -4.92814,4.92814 4.38059,0 -8.76117,8.21354 3.50443,-6.57088 -4.05199,0 4.38059,-6.5708 5.47569,0 z m -12.81316,0 -4.43537,4.43529 3.94251,0 -7.88502,7.39225 3.15401,-5.91377 -3.64678,0 3.94251,-5.91377 4.92814,0 z"
       inkscape:connector-curvature="0"
       style="fill:#ffffff;fill-opacity:1;stroke-width:0.20000000000000001;stroke-linejoin:round"
       inkscape:export-filename="C:\Users\brendan\Documents\Code\WindowsPhone\Pocketailor\Pocketailor\Images\UnlockIcons\Stormy.png"
       inkscape:export-xdpi="500"
       inkscape:export-ydpi="500" />
    <path
       id="path3658"
       d="m 378.67213,236.01437 c 3.62894,0 6.57088,2.94194 6.57088,6.57088 0,3.62894 -2.94178,6.57072 -6.5976,6.5708 l -21.6571,8e-5 c -1.81446,-8e-5 -3.28539,-1.47101 -3.28539,-3.28548 0,-1.60879 1.15627,-2.9475 2.68323,-3.23037 l -0.0549,-0.71222 c 0,-2.46976 1.94686,-4.48501 4.38956,-4.5949 1.08116,-3.06495 4.0031,-5.26138 7.43798,-5.26138 3.26125,0 6.06002,1.97988 7.26003,4.80322 0.95915,-0.54772 2.0697,-0.86063 3.25328,-0.86063 z m -23.74206,18.35609 3.44261,-0.3618 -2.03467,-2.80043 1.06323,-0.7724 2.03459,2.80035 1.40793,-3.16223 1.20052,0.53452 -1.40794,3.16223 3.4426,-0.3618 0.13737,1.30692 -3.4426,0.36188 2.03467,2.80043 -1.06324,0.7724 -2.03458,-2.80043 -1.40794,3.16223 -1.20051,-0.53452 1.40793,-3.16223 -3.4426,0.36188 -0.13737,-1.307 z m 18.45868,1.24185 3.34358,-0.89591 -2.44767,-2.44767 0.92927,-0.92927 2.44767,2.44767 0.89591,-3.34358 1.2694,0.34014 -0.8959,3.34358 3.3435,-0.89591 0.34013,1.26941 -3.3435,0.8959 2.4476,2.4476 -0.92927,0.92927 -2.4476,-2.44768 -0.8959,3.34358 -1.26941,-0.34013 0.89591,-3.3435 -3.34358,0.89582 -0.34014,-1.26932 z m -8.87065,5.2833 3.34358,-0.89582 -2.44768,-2.44768 0.92927,-0.92927 2.44768,2.44767 0.89591,-3.34358 1.26932,0.34014 -0.89591,3.34358 3.34359,-0.89591 0.34013,1.26941 -3.34358,0.89591 2.44768,2.44759 -0.92927,0.92927 -2.4476,-2.44768 -0.8959,3.34359 -1.26941,-0.34014 0.89591,-3.34358 -3.34359,0.8959 -0.34013,-1.2694 z"
       inkscape:connector-curvature="0"
       style="fill:#ffffff;fill-opacity:1;stroke-width:0.20000000000000001;stroke-linejoin:round"
       inkscape:export-filename="C:\Users\brendan\Documents\Code\WindowsPhone\Pocketailor\Pocketailor\Images\UnlockIcons\Snowy.png"
       inkscape:export-xdpi="500"
       inkscape:export-ydpi="500" />
    <path
       id="path3680"
       d="m 439.13218,252.20629 -7.40843,1.70093 c 0.55618,-1.64042 0.79265,-3.40177 0.65711,-5.18959 l 6.75132,3.48866 z m -7.5902,13.30785 -6.44016,-4.03514 c 1.61045,-0.79456 3.00536,-1.89473 4.13275,-3.20696 l 2.30741,7.2421 z m -14.77712,4.04294 -1.70092,-7.40843 c 1.64041,0.55618 3.40176,0.79265 5.18959,0.65711 l -3.48867,6.75132 z m -13.30785,-7.59021 4.03514,-6.44015 c 0.79457,1.61054 1.89473,3.00544 3.20697,4.13275 l -7.24211,2.3074 z m -4.04294,-14.77711 7.40844,-1.70084 c -0.55619,1.64041 -0.79265,3.40168 -0.65712,5.1895 l -6.75132,-3.48866 z m 7.59021,-13.30785 6.44015,4.03522 c -1.61053,0.79448 -3.00544,1.89465 -4.13274,3.20689 l -2.30741,-7.24211 z m 14.77712,-4.04294 1.70084,7.40844 c -1.64042,-0.55619 -3.40169,-0.79266 -5.18951,-0.65712 l 3.48867,-6.75132 z m 13.30784,7.59021 -4.03522,6.44015 c -0.79448,-1.61053 -1.89465,-3.00535 -3.20688,-4.13275 l 7.2421,-2.3074 z m -15.81611,1.75545 c 5.80636,0 10.51339,4.70703 10.51339,10.5134 0,5.80636 -4.70703,10.51339 -10.51339,10.51339 -5.80637,0 -10.5134,-4.70703 -10.5134,-10.51339 0,-5.80637 4.70703,-10.5134 10.5134,-10.5134 z"
       inkscape:connector-curvature="0"
       style="fill:#ffffff;fill-opacity:1;stroke-width:0.20000000000000001;stroke-linejoin:round"
       inkscape:export-filename="C:\Users\brendan\Documents\Code\WindowsPhone\Pocketailor\Pocketailor\Images\UnlockIcons\Sunny.png"
       inkscape:export-xdpi="500"
       inkscape:export-ydpi="500" />
    <path
       id="path3702"
       d="m 320.57196,229.78111 c 3.62894,0 6.57088,2.94194 6.57088,6.57088 0,3.62894 -2.94178,6.57072 -6.59761,6.5708 l -21.65709,8e-5 c -1.81447,-8e-5 -3.2854,-1.47101 -3.2854,-3.28548 0,-1.60879 1.15628,-2.94751 2.68324,-3.23037 l -0.0549,-0.71223 c 0,-2.46975 1.94686,-4.485 4.38955,-4.59489 1.08116,-3.06495 4.00311,-5.26139 7.43799,-5.26139 3.26124,0 6.06001,1.97989 7.26003,4.80323 0.95915,-0.54772 2.0697,-0.86063 3.25328,-0.86063 z m -20.15055,19.05545 c 0.43799,-1.31423 1.31414,-2.62837 2.19021,-3.94251 0.87615,1.31414 1.75221,2.62828 2.19029,3.94251 0.43808,1.31414 0.43808,2.62828 -0.43799,3.2854 -0.87615,0.65711 -2.62837,0.65711 -3.50452,0 -0.87607,-0.65712 -0.87607,-1.97126 -0.43799,-3.2854 z m 8.32301,1.97125 c 0.43808,-1.31422 1.31423,-2.62837 2.1903,-3.94251 0.87615,1.31414 1.75221,2.62829 2.19029,3.94251 0.43808,1.31415 0.43808,2.62829 -0.43808,3.2854 -0.87606,0.65712 -2.62828,0.65712 -3.50443,0 -0.87615,-0.65711 -0.87615,-1.97125 -0.43808,-3.2854 z m 7.44703,-3.28548 c 0.438,-1.31414 1.31415,-2.62828 2.19022,-3.94251 0.87615,1.31423 1.7523,2.62837 2.19029,3.94251 0.43807,1.31423 0.43807,2.62837 -0.43799,3.28548 -0.87615,0.65703 -2.62837,0.65703 -3.50452,0 -0.87607,-0.65711 -0.87607,-1.97125 -0.438,-3.28548 z"
       inkscape:connector-curvature="0"
       style="fill:#ffffff;fill-opacity:1;stroke-width:0.20000000000000001;stroke-linejoin:round"
       inkscape:export-filename="C:\Users\brendan\Documents\Code\WindowsPhone\Pocketailor\Pocketailor\Images\UnlockIcons\Rainy.png"
       inkscape:export-xdpi="500"
       inkscape:export-ydpi="500" />
    <path
       id="path3713"
       d="m 190.90725,263.18365 c -10.88565,0 -19.71021,-8.82456 -19.71021,-19.71029 0,-9.22504 6.33761,-16.96992 14.89641,-19.11815 -3.52297,3.56073 -5.69834,8.45745 -5.69834,13.86213 0,10.88564 8.82456,19.7102 19.71028,19.7102 1.6606,0 3.27322,-0.20534 4.8138,-0.59205 -3.5726,3.61095 -8.53099,5.84816 -14.01194,5.84816 z m 7.2848,-9.92009 -5.51955,0 0,-0.73787 3.10091,-4.04572 -2.73297,0 0,-1.34926 5.15161,0 0,0.88737 -2.93806,3.8963 2.93806,0 0,1.34918 z m 5.22557,-7.88408 -7.09657,0 0,-0.9487 3.98686,-5.20166 -3.51375,0 0,-1.73471 6.62346,0 0,1.14084 -3.77745,5.00952 3.77745,0 0,1.73471 z m -4.95805,-9.19815 -8.67358,0 0,-1.15943 4.87288,-6.35762 -4.29462,0 0,-2.12026 8.09532,0 0,1.39442 -4.61684,6.12272 4.61684,0 0,2.12017 z"
       inkscape:connector-curvature="0"
       style="fill:#ffffff;fill-opacity:1;stroke-width:0.20000000000000001;stroke-linejoin:round"
       inkscape:export-filename="C:\Users\brendan\Documents\Code\WindowsPhone\Pocketailor\Pocketailor\Images\UnlockIcons\Nightime.png"
       inkscape:export-xdpi="500"
       inkscape:export-ydpi="500" />
    <path
       id="path3724"
       d="m 229.81518,205.53985 c 4.3805,1.31422 6.5708,2.62837 10.51331,2.62837 1.31422,0 1.31422,0.58838 1.31422,1.31414 0,0.72584 -0.58838,1.31422 -1.31422,1.31422 l -26.28336,0 c -0.72584,0 -1.31423,-0.58838 -1.31423,-1.31422 0,-0.72576 0,-1.31414 1.31423,-1.31414 3.94251,0 6.1328,-1.31415 10.51331,-2.62837 l 0,-9.19917 -10.51331,-14.45582 26.28336,0 -10.5134,14.45582 9e-5,9.19917 z m -0.65712,-18.39834 c -1.08871,0 -1.97125,0.88254 -1.97125,1.97126 0,1.08863 0.88254,1.97125 1.97125,1.97125 1.08872,0 1.97126,-0.88262 1.97126,-1.97125 0,-1.08872 -0.88254,-1.97126 -1.97126,-1.97126 z"
       inkscape:connector-curvature="0"
       style="fill:#ffffff;fill-opacity:1;stroke-width:0.20000000000000001;stroke-linejoin:round"
       inkscape:export-filename="C:\Users\brendan\Documents\Code\WindowsPhone\Pocketailor\Pocketailor\Images\UnlockIcons\Drinking.png"
       inkscape:export-xdpi="500"
       inkscape:export-ydpi="500" />
    <path
       id="path3746"
       d="m 285.55871,178.07081 c 7.88502,2.62829 -1.31415,3.94243 3.28548,7.88494 l 9.19917,9e-5 0,9.19916 c 3.94251,4.59963 5.25665,-4.59962 7.88502,3.2854 -2.62837,7.88503 -3.94251,-1.31414 -7.88502,3.28549 l 0,10.51331 -9.19917,0 c -4.59963,-3.94252 4.59954,-5.25666 -3.28548,-7.88503 -7.88503,2.62837 1.31422,3.94251 -3.2854,7.88503 l -10.5134,0 0,-10.5134 c 3.94252,-4.59954 5.25674,4.59963 7.88503,-3.2854 -2.62829,-7.88502 -3.94251,1.31415 -7.88503,-3.2854 l 0,-9.19925 10.5134,0 c 4.59954,-3.94251 -4.59963,-5.25665 3.2854,-7.88494 z"
       inkscape:connector-curvature="0"
       style="fill:#ffffff;fill-opacity:1;stroke-width:0.20000000000000001;stroke-linejoin:round"
       inkscape:export-filename="C:\Users\brendan\Documents\Code\WindowsPhone\Pocketailor\Pocketailor\Images\UnlockIcons\PlayingJigsaw.png"
       inkscape:export-xdpi="500"
       inkscape:export-ydpi="500" />
    <path
       id="path3768"
       d="m 398.28459,172.92125 2.49037,0 0,2.49036 2.49036,0 0,2.49036 8.30125,0 0,-2.49036 2.49036,0 0,-2.49036 2.49035,0 0,2.49036 -2.49035,0 0,2.49036 2.49035,0 0,2.49036 2.49045,0 0,3.32053 -2.49045,0 0,7.47108 -2.49035,0 0,2.49045 -4.98072,0 0,-2.49045 4.98072,0 0,-4.15063 -13.28197,0 0,4.15063 -2.49037,0 0,-7.47108 -2.49043,0 0,4.98072 -3.32045,0 0,-4.98072 3.32045,0 0,-3.32053 2.49043,0 0,-2.49036 2.49037,0 0,-2.49036 -2.49037,0 0,-2.49036 z m 20.75314,10.79161 3.32045,0 0,4.98072 -3.32045,0 0,-4.98072 z m -18.26277,7.47108 4.98071,0 0,2.49045 -4.98071,0 0,-2.49045 z m 0,-10.79161 0,3.32053 3.32045,0 0,-3.32053 -3.32045,0 z m 9.96152,0 0,3.32053 3.32045,0 0,-3.32053 -3.32045,0 z"
       inkscape:connector-curvature="0"
       style="fill:#ffffff;fill-opacity:1;stroke-width:0.20000000000000001;stroke-linejoin:round"
       inkscape:export-filename="C:\Users\brendan\Documents\Code\WindowsPhone\Pocketailor\Pocketailor\Images\UnlockIcons\PlayingVideoGames.png"
       inkscape:export-xdpi="500"
       inkscape:export-ydpi="500" />
    <path
       id="path3779"
       d="m 330.55301,203.55381 c 0,0 18.39834,-26.28336 34.16839,-26.28336 1.31422,1.31414 1.31422,2.62828 0,3.94251 -1.31414,1.31414 -2.95689,-0.32851 -4.27103,0.98563 -1.31422,1.31414 2.02761,0.71347 2.95689,1.64266 1.31414,1.31422 -4.59963,2.95696 -7.228,1.64274 0,0 -0.65703,0.32851 1.97134,2.95688 -2.62837,0.65712 -6.89948,0.98563 -6.89948,0.98563 0,0 -0.98554,2.29977 4.27111,2.29977 0,1.31423 -5.58525,3.9426 -12.15613,2.95697 0,0 -6.24229,3.61391 -8.87057,7.55642 l -3.94252,1.31415 z"
       inkscape:connector-curvature="0"
       style="fill:#ffffff;fill-opacity:1;stroke-width:0.20000000000000001;stroke-linejoin:round"
       inkscape:export-filename="C:\Users\brendan\Documents\Code\WindowsPhone\Pocketailor\Pocketailor\Images\UnlockIcons\Writing.png"
       inkscape:export-xdpi="500"
       inkscape:export-ydpi="500" />
  </g>
</svg>
