<?xml version="1.0" encoding="UTF-8" standalone="no"?>
<!-- Created with Inkscape (http://www.inkscape.org/) -->

<svg
   xmlns:dc="http://purl.org/dc/elements/1.1/"
   xmlns:cc="http://creativecommons.org/ns#"
   xmlns:rdf="http://www.w3.org/1999/02/22-rdf-syntax-ns#"
   xmlns:svg="http://www.w3.org/2000/svg"
   xmlns="http://www.w3.org/2000/svg"
   xmlns:xlink="http://www.w3.org/1999/xlink"
   xmlns:sodipodi="http://sodipodi.sourceforge.net/DTD/sodipodi-0.dtd"
   xmlns:inkscape="http://www.inkscape.org/namespaces/inkscape"
   width="744.09448819"
   height="1052.3622047"
   id="svg3958"
   version="1.1"
   inkscape:version="0.48.4 r9939"
   sodipodi:docname="Material.svg">
  <defs
     id="defs3960">
    <clipPath
       clipPathUnits="userSpaceOnUse"
       id="clipPath4317">
      <rect
         style="fill:#8cbe29;fill-opacity:1;stroke:#4d4d4d;stroke-width:0;stroke-miterlimit:4;stroke-opacity:1;stroke-dasharray:none;stroke-dashoffset:0"
         id="rect4319"
         width="336"
         height="166"
         x="2068.4951"
         y="-177.6178"
         inkscape:export-filename="C:\Users\brendan\Documents\Code\WindowsPhone\Pocketailor\Pocketailor-v.2.x.x\Pocketailor\Images\Tiles\BackgroundImage.png"
         inkscape:export-xdpi="89.999985"
         inkscape:export-ydpi="89.999985"
         transform="matrix(0.99993729,0.01119926,-0.01119926,0.99993729,0,0)" />
    </clipPath>
    <clipPath
       clipPathUnits="userSpaceOnUse"
       id="clipPath4270">
      <rect
         style="fill:#8cbe29;fill-opacity:1;stroke:#4d4d4d;stroke-width:0;stroke-miterlimit:4;stroke-opacity:1;stroke-dasharray:none;stroke-dashoffset:0"
         id="rect4272"
         width="336"
         height="336"
         x="1891.3684"
         y="-834.04688"
         inkscape:export-filename="C:\Users\brendan\Documents\Code\WindowsPhone\Pocketailor\Pocketailor-v.2.x.x\Pocketailor\Images\Tiles\BackgroundImage.png"
         inkscape:export-xdpi="89.999985"
         inkscape:export-ydpi="89.999985" />
    </clipPath>
    <clipPath
       clipPathUnits="userSpaceOnUse"
       id="clipPath4174">
      <rect
         style="fill:#8cbe29;fill-opacity:1;stroke:#8cbe29;stroke-width:0;stroke-miterlimit:4;stroke-opacity:1;stroke-dasharray:none;stroke-dashoffset:0"
         id="rect4176"
         width="311.42856"
         height="155.71428"
         x="570.38568"
         y="-606.61163" />
    </clipPath>
  </defs>
  <sodipodi:namedview
     id="base"
     pagecolor="#ffffff"
     bordercolor="#666666"
     borderopacity="1.0"
     inkscape:pageopacity="0.0"
     inkscape:pageshadow="2"
     inkscape:zoom="0.35"
     inkscape:cx="-0.012085895"
     inkscape:cy="345.0762"
     inkscape:document-units="px"
     inkscape:current-layer="layer1"
     showgrid="false"
     inkscape:window-width="1600"
     inkscape:window-height="837"
     inkscape:window-x="-8"
     inkscape:window-y="-8"
     inkscape:window-maximized="1" />
  <metadata
     id="metadata3963">
    <rdf:RDF>
      <cc:Work
         rdf:about="">
        <dc:format>image/svg+xml</dc:format>
        <dc:type
           rdf:resource="http://purl.org/dc/dcmitype/StillImage" />
        <dc:title></dc:title>
      </cc:Work>
    </rdf:RDF>
  </metadata>
  <g
     inkscape:label="Layer 1"
     inkscape:groupmode="layer"
     id="layer1">
    <image
       y="-864.02667"
       x="1565.3708"
       id="image3986-6"
       xlink:href="file:///C:/Users/brendan/Documents/Code/WindowsPhone/Pocketailor/Pocketailor-v.2.x.x/Resources/Photos/TMLewin/DSC00335.JPG"
       height="557.16724"
       width="837.20929"
       clip-path="url(#clipPath4270)"
       inkscape:export-filename="C:\Users\brendan\Documents\Code\WindowsPhone\Pocketailor\Pocketailor-v.2.x.x\Marketing\Twitter\Profile.png"
       inkscape:export-xdpi="90"
       inkscape:export-ydpi="90"
       transform="translate(-2814.3921,1033.319)" />
    <image
       y="-190.61201"
       x="1937.4137"
       id="image4040-1"
       xlink:href="file:///C:/Users/brendan/Documents/Code/WindowsPhone/Pocketailor/Pocketailor-v.2.x.x/Resources/Photos/ChandniChowk/DSC00331.JPG"
       height="393.28357"
       width="590.9549"
       clip-path="url(#clipPath4317)"
       inkscape:export-filename="C:\Users\brendan\Documents\Code\WindowsPhone\Pocketailor\Pocketailor-v.2.x.x\Marketing\Twitter\Profile.png"
       inkscape:export-xdpi="90"
       inkscape:export-ydpi="90"
       transform="matrix(0.99993729,-0.01119926,0.01119926,0.99993729,-2991.5188,546.88984)" />
    <rect
       style="opacity:0.3;fill:#000000;fill-opacity:1;stroke:#8cbe29;stroke-width:0;stroke-miterlimit:4;stroke-opacity:1;stroke-dasharray:none;stroke-dashoffset:0"
       id="rect4658-1"
       width="336"
       height="169.12137"
       x="-923.02362"
       y="281.0177"
       inkscape:export-filename="C:\Users\brendan\Documents\Code\WindowsPhone\Pocketailor\Pocketailor-v.2.x.x\Marketing\Twitter\Profile.png"
       inkscape:export-xdpi="90"
       inkscape:export-ydpi="90" />
    <g
       inkscape:export-ydpi="90"
       inkscape:export-xdpi="90"
       inkscape:export-filename="C:\Users\brendan\Documents\Code\WindowsPhone\Pocketailor\Pocketailor-v.2.x.x\Marketing\Twitter\Profile.png"
       style="fill:#ffffff;stroke:none;display:inline"
       transform="matrix(2.1605548,0,0,2.2256786,-1303.5195,-1642.9281)"
       id="g4492">
      <g
         style="font-size:64px;font-style:normal;font-variant:normal;font-weight:normal;font-stretch:normal;text-align:start;line-height:100%;letter-spacing:0px;word-spacing:0px;writing-mode:lr-tb;text-anchor:start;fill:#ffffff;fill-opacity:1;stroke:none;font-family:'Lobster 1.4';-inkscape-font-specification:'Lobster 1.4'"
         id="g4494"
         transform="translate(116.05082,400.53572)">
        <path
           style="fill:#ffffff;stroke:none"
           d="m 209.00289,471.38278 c -0.82135,-0.0746 -1.67467,-0.11729 -2.55997,-0.128 -3.64205,0.0479 -7.43895,0.0931 -10.94121,0.72686 -3.01768,0.54605 -8.58471,1.26341 -10.80453,3.77632 1.23622,3.36237 6.09758,5.3179 8.39412,5.26608 2.96445,-7.72109 4.86549,-7.35654 6.23654,-6.17783 4.32055,3.71445 0.65116,37.59292 0.65116,44.40795 l 9.72788,0 17.79177,-47.67939 -4.47994,0 -13.43983,39.1675 z"
           id="path4496"
           inkscape:connector-curvature="0"
           sodipodi:nodetypes="ccsccscccccc" />
      </g>
      <text
         xml:space="preserve"
         style="font-size:64px;font-style:normal;font-variant:normal;font-weight:normal;font-stretch:normal;text-align:start;line-height:100%;letter-spacing:0px;word-spacing:0px;writing-mode:lr-tb;text-anchor:start;fill:#ffffff;fill-opacity:1;stroke:none;font-family:'Lobster 1.4';-inkscape-font-specification:'Lobster 1.4'"
         x="186.69893"
         y="920.48822"
         id="text4498"
         sodipodi:linespacing="100%"><tspan
           sodipodi:role="line"
           id="tspan4500"
           x="186.69893"
           y="920.48822">Lassi</tspan></text>
    </g>
    <text
       sodipodi:linespacing="125%"
       id="text4582"
       y="157.68558"
       x="-745.75006"
       style="font-size:24px;font-style:normal;font-variant:normal;font-weight:normal;font-stretch:normal;line-height:125%;letter-spacing:0px;word-spacing:0px;fill:#000000;fill-opacity:1;stroke:none;font-family:Monda;-inkscape-font-specification:Monda"
       xml:space="preserve"><tspan
         style="font-style:normal;font-variant:normal;font-weight:normal;font-stretch:normal;font-family:Segoe WP;-inkscape-font-specification:Segoe WP"
         y="157.68558"
         x="-745.75006"
         id="tspan4584"
         sodipodi:role="line">PROFILE</tspan></text>
    <text
       xml:space="preserve"
       style="font-size:24px;font-style:normal;font-variant:normal;font-weight:normal;font-stretch:normal;line-height:125%;letter-spacing:0px;word-spacing:0px;fill:#000000;fill-opacity:1;stroke:none;font-family:Monda;-inkscape-font-specification:Monda"
       x="497.10706"
       y="194.82843"
       id="text4048-1"
       sodipodi:linespacing="125%"><tspan
         sodipodi:role="line"
         id="tspan4050-5"
         x="497.10706"
         y="194.82843"
         style="font-style:normal;font-variant:normal;font-weight:normal;font-stretch:normal;font-family:Segoe WP;-inkscape-font-specification:Segoe WP">BACKGROUND</tspan></text>
    <rect
       style="fill:#8cbe29;fill-opacity:1;stroke:none"
       id="rect4550"
       width="309.74643"
       height="586.25549"
       x="437.63309"
       y="227.12189"
       inkscape:export-filename="C:\Users\brendan\Documents\Code\WindowsPhone\Pocketailor\Pocketailor-v.2.x.x\Marketing\Twitter\BackgroundImage.png"
       inkscape:export-xdpi="90"
       inkscape:export-ydpi="90" />
    <image
       y="277.01483"
       x="474.89774"
       id="image4031"
       xlink:href="file:///C:/Users/brendan/Documents/Code/WindowsPhone/Pocketailor/Pocketailor-v.2.x.x/Marketing/Twitter/PocketailorUSSToreDownload.png"
       height="228.47693"
       width="228.47693"
       inkscape:export-filename="C:\Users\brendan\Documents\Code\WindowsPhone\Pocketailor\Pocketailor-v.2.x.x\Marketing\Twitter\BackgroundImage.png"
       inkscape:export-xdpi="90"
       inkscape:export-ydpi="90" />
    <path
       style="fill:none;stroke:#ffffff;stroke-width:3.32088542;stroke-linecap:butt;stroke-linejoin:miter;stroke-miterlimit:4;stroke-opacity:1;stroke-dasharray:none"
       d="m 586.52622,519.05681 c -30.3542,79.86405 5.04996,123.01172 5.04996,123.01172"
       id="path4034"
       inkscape:connector-curvature="0"
       sodipodi:nodetypes="cc"
       inkscape:export-filename="C:\Users\brendan\Documents\Code\WindowsPhone\Pocketailor\Pocketailor-v.2.x.x\Marketing\Twitter\BackgroundImage.png"
       inkscape:export-xdpi="90"
       inkscape:export-ydpi="90" />
    <path
       style="fill:none;stroke:#ffffff;stroke-width:3.32088542;stroke-linecap:butt;stroke-linejoin:miter;stroke-miterlimit:4;stroke-opacity:1;stroke-dasharray:none"
       d="m 564.32399,533.76209 22.51609,-14.10093 12.9489,20.31872"
       id="path4544"
       inkscape:connector-curvature="0"
       sodipodi:nodetypes="ccc"
       inkscape:export-filename="C:\Users\brendan\Documents\Code\WindowsPhone\Pocketailor\Pocketailor-v.2.x.x\Marketing\Twitter\BackgroundImage.png"
       inkscape:export-xdpi="90"
       inkscape:export-ydpi="90" />
    <text
       xml:space="preserve"
       style="font-size:24.3963604px;font-style:normal;font-variant:normal;font-weight:normal;font-stretch:normal;line-height:125%;letter-spacing:0px;word-spacing:0px;fill:#000000;fill-opacity:1;stroke:none;font-family:Segoe UI;-inkscape-font-specification:Segoe UI"
       x="477.07611"
       y="763.03784"
       id="text4546"
       sodipodi:linespacing="125%"
       inkscape:export-filename="C:\Users\brendan\Documents\Code\WindowsPhone\Pocketailor\Pocketailor-v.2.x.x\Marketing\Twitter\BackgroundImage.png"
       inkscape:export-xdpi="90"
       inkscape:export-ydpi="90"><tspan
         sodipodi:role="line"
         id="tspan4548"
         x="477.07611"
         y="763.03784"
         style="font-size:36.59454346px;fill:#ffffff">POCKETAILOR</tspan></text>
    <g
       transform="matrix(0.63840727,0,0,0.63840727,131.80376,1006.9314)"
       id="g4211"
       clip-path="url(#clipPath4174)"
       inkscape:export-filename="C:\Users\brendan\Documents\Code\WindowsPhone\Pocketailor\Pocketailor-v.2.x.x\Marketing\Twitter\BackgroundImage.png"
       inkscape:export-xdpi="90"
       inkscape:export-ydpi="90">
      <path
         sodipodi:nodetypes="ccccccccccccccccccccccccccccccccccccccccccccccccccccccccccssssssssssssssssssssssssssssss"
         inkscape:connector-curvature="0"
         id="path4213"
         d="m 685.58212,-551.24981 -6.98908,-0.0582 10e-5,23.23897 5.9406,2e-5 2.27158,-2e-5 10e-6,2.27157 -10e-6,5.94063 22.97693,-0.029 -9e-5,-7.16389 -8.32877,-9e-5 -15.90024,-15.90025 z m -18.02616,-10.10511 -28.36429,-2e-5 -10.04698,0.0293 -12.7843,-0.0291 -0.0291,12.84264 1e-5,10.01781 -1e-5,11.29897 13.27942,-2e-5 -45.74996,45.74997 -0.0288,0.0288 0.0288,0.0288 15.78375,30.57769 10.1344,-9e-5 -0.0291,-10.51285 66.54266,-66.54262 0.0288,-0.029 2e-5,-0.1752 -2e-5,-24.52024 -0.0288,-0.0288 z m 43.77015,43.88572 -0.29131,-2e-5 c -0.0401,-0.0401 -0.0494,-0.10148 -0.0875,-0.14541 l -24.17085,9e-5 -2.2425,0.0291 8e-5,-0.0578 -2e-5,-2.21324 0,-5.94081 -7.0474,1.1e-4 -65.43602,65.43602 -1e-4,6.58146 -0.0291,2.94125 0.0582,12.40577 28.07305,13.45412 0.029,0.0289 0.0288,-0.0289 45.74988,-45.74986 -0.0291,13.25026 11.32841,0.0291 10.01781,10e-6 12.84253,-0.0291 -0.0291,-12.78439 0.0291,-10.04689 -0.0291,-28.39354 -8.73647,-8.73645 z m -31.56781,-3.55284 c 1.14994,1.14997 1.14975,2.9856 8e-5,4.13526 -1.15005,1.15005 -2.9854,1.14996 -4.13534,0 -1.14951,-1.14948 -1.15005,-2.9853 0,-4.13535 1.14966,-1.14966 2.98575,-1.14939 4.13526,9e-5 z m -11.41564,11.41564 c 1.14993,1.14997 1.12086,3.01448 -0.0291,4.16443 -1.14976,1.14976 -3.01449,1.17902 -4.16442,0.0291 -1.1495,-1.14948 -1.12071,-3.01467 0.0291,-4.16444 1.14993,-1.14993 3.01493,-1.17854 4.16442,-0.0291 z m -11.44483,11.44481 c 1.14996,1.14995 1.14996,2.9854 1.1e-4,4.13528 -1.14987,1.14983 -3.01448,1.179 -4.16442,0.0291 -1.14949,-1.14948 -1.12078,-3.01456 0.0291,-4.16442 1.14987,-1.14986 2.98578,-1.14939 4.13526,8e-5 z m -11.44472,11.44472 c 1.14997,1.14995 1.15005,2.9853 2e-5,4.13535 -1.14966,1.14966 -3.01448,1.17902 -4.16443,0.0291 -1.14948,-1.14949 -1.1206,-3.01475 0.0291,-4.16441 1.15006,-1.15005 2.98587,-1.14951 4.13535,0 z m -11.41561,11.41564 c 1.14993,1.14994 1.12077,3.01456 -0.0291,4.16442 -1.14986,1.14987 -2.98542,1.14995 -4.13535,0 -1.14949,-1.14949 -1.14987,-2.9855 0,-4.13535 1.14985,-1.14985 3.01492,-1.17855 4.16443,-0.0291 z m -11.44473,11.44471 c 1.14995,1.14996 1.12079,3.01456 -0.0291,4.16443 -1.14995,1.14995 -2.9854,1.14995 -4.13535,0 -1.14947,-1.1495 -1.14994,-2.98541 10e-6,-4.13536 1.14985,-1.14985 3.01494,-1.17856 4.16441,-0.0291 z"
         style="fill:#ffffff;fill-opacity:1;stroke:none;display:inline"
         inkscape:export-filename="C:\Users\brendan\Documents\Code\WindowsPhone\Pocketailor\Pocketailor\Images\MaleProfileIconFull.png"
         inkscape:export-xdpi="90"
         inkscape:export-ydpi="90" />
      <path
         style="fill:#ffffff;fill-opacity:1;stroke:none;display:inline"
         d="m 833.47156,-548.42033 -7.13488,-0.0291 -0.029,22.97689 5.9407,-7e-5 2.2424,0.0291 0.0291,2.24238 -8e-5,5.94071 23.2099,0.0291 -0.0581,-6.98918 -8.27071,10e-6 -15.90027,-15.90025 z m 25.33565,33.43154 -24.28729,0 -0.20407,0.0287 -0.0287,0.0289 -66.51356,66.51357 -10.542,6e-5 0.0293,10.16339 32.93627,18.20091 0.20393,0.20387 c 22.18678,-22.18676 8.61178,-40.17261 46.65278,-53.70011 l -2.06767,49.36105 21.02563,0.99003 c 0,0 9.33894,-71.11457 8.15414,-77.2885 -1.0835,-5.64534 -1.66443,-10.01793 -5.44586,-14.41511 z M 824.0657,-549.6147 c -4.40819,-3.80657 -8.785,-4.38874 -14.44427,-5.47486 -6.17394,-1.1848 -77.31769,8.12496 -77.31769,8.12496 l 1.01929,21.0549 49.36103,-2.06765 c -13.52768,38.04082 -31.51339,24.46591 -53.7002,46.65268 l 0.17477,0.1747 15.72562,30.46104 12.40577,8e-5 2.91225,-9e-5 6.58136,0 65.46519,-65.46522 -0.0291,-7.01824 -5.91162,-0.0291 -2.24239,0.0292 -0.0578,-7e-5 0.0581,-2.27157 z m 3.40717,31.1892 c 1.1495,1.14949 1.12069,3.01466 -0.0291,4.16442 -1.14998,1.14996 -2.98577,1.14938 -4.13528,-7e-5 -1.14991,-1.14997 -1.15003,-2.98531 -7e-5,-4.13526 1.14977,-1.14977 3.01447,-1.17903 4.16442,-0.0291 z m -11.4447,11.44472 c 1.14947,1.14949 1.12087,3.01447 -0.0291,4.16442 -1.14974,1.14977 -2.98585,1.14949 -4.13533,2e-5 -1.14994,-1.14998 -1.14976,-2.9856 10e-6,-4.13537 1.14993,-1.14996 3.01445,-1.17903 4.1644,-0.0291 z m -11.4447,11.44471 c 1.14945,1.14949 1.14984,2.98549 -3e-5,4.13535 -1.14984,1.14986 -3.01493,1.17856 -4.16443,0.0291 -1.14993,-1.14998 -1.12077,-3.01458 0.0291,-4.16445 1.14986,-1.14984 2.9854,-1.14992 4.13537,2e-5 z m -11.41565,11.41566 c 1.14949,1.14944 1.12088,3.01443 -0.0291,4.1644 -1.14976,1.14978 -3.01494,1.17857 -4.16441,0.0291 -1.14996,-1.14995 -1.12071,-3.01464 0.0291,-4.16441 1.14995,-1.14995 3.01448,-1.17903 4.16443,-0.029 z M 781.723,-472.6756 c 1.14952,1.14947 1.14996,2.98538 1.1e-4,4.13521 -1.14995,1.14999 -3.01496,1.1786 -4.16445,0.0291 -1.14994,-1.14993 -1.12087,-3.01444 0.0291,-4.1644 1.14985,-1.14986 2.98534,-1.14987 4.13527,7e-5 z m -11.44484,11.44478 c 1.14952,1.14949 1.12092,3.01448 -0.0291,4.16444 -1.14985,1.14985 -2.95657,1.12022 -4.10608,-0.0293 -1.14994,-1.14994 -1.17912,-2.95623 -0.0293,-4.10611 1.14995,-1.14995 3.01448,-1.17902 4.16441,-0.0291 z"
         id="path4215"
         inkscape:connector-curvature="0"
         sodipodi:nodetypes="cccccccccccccccccccccccccccccccccccccccccccccssssssssssssssssssssssssssssss" />
    </g>
  </g>
</svg>
